# WaveFront *.obj file (generated by Autodesk ATF)

mtllib Medal.mtl

g Body362

v 80.803036 -502.500007 2.500000
v 76.793237 -501.197145 2.500000
v 76.793237 -501.197145 1.500000
v 80.803036 -502.500007 1.500000
v 76.793237 -496.980994 2.500000
v 76.793237 -496.980994 1.500000
v 74.315046 -500.391932 2.500000
v 74.315046 -500.391932 1.500000
v 70.305248 -499.089069 2.500000
v 70.305248 -499.089069 1.500000
v 72.783439 -502.500007 2.500000
v 72.783439 -502.500007 1.500000
v 70.305248 -505.910946 2.500000
v 70.305248 -505.910946 1.500000
v 74.315046 -504.608083 2.500000
v 74.315046 -504.608083 1.500000
v 76.793237 -508.019021 2.500000
v 76.793237 -508.019021 1.500000
v 76.793237 -503.802870 2.500000
v 76.793237 -503.802870 1.500000
v 85.000001 -497.500007 2.000000
v 87.500001 -495.000007 2.000000
v 87.500001 -495.000007 0.000000
v 85.000001 -497.500007 0.000000
v 85.000001 -501.000007 0.000000
v 85.000001 -501.000007 2.000000
v 94.000001 -495.000007 0.000000
v 94.000001 -510.000008 0.000000
v 87.500001 -510.000008 0.000000
v 85.000001 -507.500008 0.000000
v 85.000001 -504.000008 0.000000
v 84.380833 -504.000008 0.000000
v 84.486736 -503.001875 0.000000
v 84.486736 -501.998140 0.000000
v 84.380833 -501.000007 0.000000
v 87.500001 -510.000008 2.000000
v 85.000001 -507.500008 2.000000
v 85.000001 -504.000008 2.000000
v 84.380833 -501.000007 2.000000
v 84.486736 -501.998140 2.000000
v 84.486736 -503.001875 2.000000
v 84.380833 -504.000008 2.000000
v 94.000001 -510.000008 2.000000
v 94.000001 -495.000007 2.000000
v 84.380833 -504.000008 -0.500000
v 83.992397 -505.563800 -0.500000
v 83.345266 -507.039452 -0.500000
v 82.458057 -508.384513 -0.500000
v 81.356294 -509.560287 -0.500000
v 80.071671 -510.532950 -0.500000
v 78.641146 -511.274520 -0.500000
v 77.105871 -511.763663 -0.500000
v 75.510015 -511.986308 -0.500000
v 73.899486 -511.936049 -0.500000
v 72.320618 -511.614332 -0.500000
v 70.818830 -511.030413 -0.500000
v 69.437327 -510.201089 -0.500000
v 68.215852 -509.150219 -0.500000
v 67.189544 -507.908035 -0.500000
v 66.387929 -506.510272 -0.500000
v 65.834068 -504.997141 -0.500000
v 65.543894 -503.412172 -0.500000
v 65.525755 -501.800961 -0.500000
v 65.780173 -500.209861 -0.500000
v 66.299828 -498.684644 -0.500000
v 67.069772 -497.269188 -0.500000
v 68.067854 -496.004214 -0.500000
v 69.265361 -494.926111 -0.500000
v 70.627843 -494.065896 -0.500000
v 72.116104 -493.448315 -0.500000
v 73.687330 -493.091134 -0.500000
v 75.296319 -493.004630 -0.500000
v 76.896783 -493.191290 -0.500000
v 78.442681 -493.645745 -0.500000
v 79.889539 -494.354921 -0.500000
v 81.195733 -495.298417 -0.500000
v 82.323688 -496.449089 -0.500000
v 83.240954 -497.773835 -0.500000
v 83.921142 -499.234545 -0.500000
v 84.344685 -500.789195 -0.500000
v 84.499399 -502.393063 -0.500000
v 84.380833 -504.000008 2.500000
v 84.499399 -502.393063 2.500000
v 84.344685 -500.789195 2.500000
v 83.921142 -499.234545 2.500000
v 83.240954 -497.773835 2.500000
v 82.323688 -496.449089 2.500000
v 81.195733 -495.298417 2.500000
v 79.889539 -494.354921 2.500000
v 78.442681 -493.645745 2.500000
v 76.896783 -493.191290 2.500000
v 75.296319 -493.004630 2.500000
v 73.687330 -493.091134 2.500000
v 72.116104 -493.448315 2.500000
v 70.627843 -494.065896 2.500000
v 69.265361 -494.926111 2.500000
v 68.067854 -496.004214 2.500000
v 67.069772 -497.269188 2.500000
v 66.299828 -498.684644 2.500000
v 65.780173 -500.209861 2.500000
v 65.525755 -501.800961 2.500000
v 65.543894 -503.412172 2.500000
v 65.834068 -504.997141 2.500000
v 66.387929 -506.510272 2.500000
v 67.189544 -507.908035 2.500000
v 68.215852 -509.150219 2.500000
v 69.437327 -510.201089 2.500000
v 70.818830 -511.030413 2.500000
v 72.320618 -511.614332 2.500000
v 73.899486 -511.936049 2.500000
v 75.510015 -511.986308 2.500000
v 77.105871 -511.763663 2.500000
v 78.641146 -511.274520 2.500000
v 80.071671 -510.532950 2.500000
v 81.356294 -509.560287 2.500000
v 82.458057 -508.384513 2.500000
v 83.345266 -507.039452 2.500000
v 83.992397 -505.563800 2.500000
vt -0.439779 0.000000 0.000000
vt -0.018164 0.000000 0.000000
vt -0.439779 0.100000 0.000000
vt -0.018164 0.100000 0.000000
vt -0.344673 -0.000000 0.000000
vt 0.076942 0.000000 0.000000
vt -0.344673 0.100000 0.000000
vt 0.076942 0.100000 0.000000
vt -0.439779 0.000000 0.000000
vt -0.018164 0.000000 0.000000
vt -0.439779 0.100000 0.000000
vt -0.018164 0.100000 0.000000
vt -0.344673 0.000000 0.000000
vt 0.076942 0.000000 0.000000
vt -0.344673 0.100000 0.000000
vt 0.076942 0.100000 0.000000
vt -0.439779 0.000000 0.000000
vt -0.018164 0.000000 0.000000
vt -0.439779 0.100000 0.000000
vt -0.018164 0.100000 0.000000
vt -0.344673 0.000000 0.000000
vt 0.076942 0.000000 0.000000
vt -0.344673 0.100000 0.000000
vt 0.076942 0.100000 0.000000
vt -0.439779 -0.000000 0.000000
vt -0.018164 -0.000000 0.000000
vt -0.439779 0.100000 0.000000
vt -0.018164 0.100000 0.000000
vt -0.344673 0.000000 0.000000
vt 0.076942 0.000000 0.000000
vt -0.344673 0.100000 0.000000
vt 0.076942 0.100000 0.000000
vt -0.439779 -0.000000 0.000000
vt -0.018164 -0.000000 0.000000
vt -0.439779 0.100000 0.000000
vt -0.018164 0.100000 0.000000
vt -0.344673 -0.000000 0.000000
vt 0.076942 0.000000 0.000000
vt -0.344673 0.100000 0.000000
vt 0.076942 0.100000 0.000000
vt 0.532615 0.000000 0.000000
vt 0.131635 0.130286 0.000000
vt 0.131635 -0.130286 0.000000
vt -0.116184 0.210808 0.000000
vt -0.116184 -0.210808 0.000000
vt -0.269345 0.000000 0.000000
vt -0.517164 -0.341094 0.000000
vt 0.131635 0.551901 0.000000
vt -0.517164 0.341094 0.000000
vt 0.131635 -0.551901 0.000000
vt 0.200000 0.176777 0.000000
vt 0.000000 0.176777 0.000000
vt 0.200000 -0.176777 0.000000
vt 0.000000 -0.176777 0.000000
vt 0.250000 0.000000 0.000000
vt 0.600000 0.000000 0.000000
vt 0.250000 0.200000 0.000000
vt 0.600000 0.200000 0.000000
vt -0.725000 0.500000 0.000000
vt -0.975000 0.750000 0.000000
vt -0.725000 0.150000 0.000000
vt -1.625000 -0.750000 0.000000
vt -0.725000 -0.150000 0.000000
vt -0.975000 -0.750000 0.000000
vt -0.725000 -0.500000 0.000000
vt -1.625000 0.750000 0.000000
vt -0.663083 -0.150000 0.000000
vt -0.673673 -0.050187 0.000000
vt -0.673673 0.050187 0.000000
vt -0.663083 0.150000 0.000000
vt 0.200000 0.176777 0.000000
vt 0.000000 0.176777 0.000000
vt 0.200000 -0.176777 0.000000
vt 0.000000 -0.176777 0.000000
vt 0.350000 0.200000 0.000000
vt 0.000000 0.200000 0.000000
vt 0.350000 0.000000 0.000000
vt 0.000000 0.000000 0.000000
vt 0.725000 0.500000 0.000000
vt 0.725000 0.150000 0.000000
vt 0.975000 0.750000 0.000000
vt 1.625000 -0.750000 0.000000
vt 1.625000 0.750000 0.000000
vt 0.663083 0.150000 0.000000
vt 0.673673 0.050187 0.000000
vt 0.673673 -0.050187 0.000000
vt 0.725000 -0.150000 0.000000
vt 0.663083 -0.150000 0.000000
vt 0.725000 -0.500000 0.000000
vt 0.975000 -0.750000 0.000000
vt 0.000000 1.500000 0.000000
vt -0.200000 1.500000 0.000000
vt 0.000000 0.000000 0.000000
vt -0.200000 0.000000 0.000000
vt 0.949940 -0.010694 0.000000
vt 0.938083 0.150000 0.000000
vt -0.793023 -0.523082 0.000000
vt 0.899240 0.306379 0.000000
vt 0.834526 0.453944 0.000000
vt 0.745806 0.588451 0.000000
vt 0.635629 0.706028 0.000000
vt 0.507167 0.803294 0.000000
vt 0.364114 0.877451 0.000000
vt 0.210587 0.926366 0.000000
vt 0.051001 0.948630 0.000000
vt -0.110051 0.943604 0.000000
vt -0.267938 0.911432 0.000000
vt -0.418117 0.853041 0.000000
vt -0.556267 0.770108 0.000000
vt -0.678415 0.665021 0.000000
vt -0.781046 0.540803 0.000000
vt -0.861207 0.401026 0.000000
vt -0.870017 -0.381536 0.000000
vt -0.916593 0.249713 0.000000
vt -0.921983 -0.229015 0.000000
vt -0.945611 0.091216 0.000000
vt -0.947425 -0.069905 0.000000
vt -0.693215 -0.649579 0.000000
vt 0.732369 -0.605092 0.000000
vt 0.824095 -0.472617 0.000000
vt 0.892114 -0.326546 0.000000
vt 0.619573 -0.720159 0.000000
vt -0.573464 -0.757390 0.000000
vt 0.488954 -0.814509 0.000000
vt -0.437216 -0.843411 0.000000
vt 0.344268 -0.885426 0.000000
vt -0.288390 -0.905169 0.000000
vt 0.189678 -0.930872 0.000000
vt -0.131267 -0.940887 0.000000
vt 0.029632 -0.949538 0.000000
vt 0.934468 -0.171081 0.000000
vt -0.179324 -0.551901 0.000000
vt -0.179324 -0.130286 0.000000
vt -0.732369 -0.605092 0.000000
vt -0.580303 0.000000 0.000000
vt -0.824095 -0.472617 0.000000
vt -0.892114 -0.326546 0.000000
vt -0.934468 -0.171081 0.000000
vt -0.949940 -0.010694 0.000000
vt -0.938083 0.150000 0.000000
vt -0.899240 0.306379 0.000000
vt -0.834526 0.453944 0.000000
vt -0.745806 0.588451 0.000000
vt -0.179324 0.130286 0.000000
vt -0.179324 0.551901 0.000000
vt 0.068496 0.210808 0.000000
vt 0.267938 0.911432 0.000000
vt 0.110051 0.943604 0.000000
vt -0.051001 0.948630 0.000000
vt 0.469475 0.341094 0.000000
vt 0.418117 0.853041 0.000000
vt 0.556267 0.770108 0.000000
vt 0.678415 0.665021 0.000000
vt 0.781046 0.540803 0.000000
vt 0.861207 0.401026 0.000000
vt 0.916593 0.249713 0.000000
vt 0.945611 0.091216 0.000000
vt 0.221656 0.000000 0.000000
vt 0.947425 -0.069905 0.000000
vt 0.469475 -0.341094 0.000000
vt 0.921983 -0.229015 0.000000
vt 0.870017 -0.381536 0.000000
vt 0.793023 -0.523082 0.000000
vt 0.693215 -0.649579 0.000000
vt 0.573464 -0.757390 0.000000
vt 0.437216 -0.843411 0.000000
vt 0.288390 -0.905169 0.000000
vt 0.068496 -0.210808 0.000000
vt -0.619573 -0.720159 0.000000
vt -0.488954 -0.814509 0.000000
vt -0.344268 -0.885426 0.000000
vt -0.189678 -0.930872 0.000000
vt -0.029632 -0.949538 0.000000
vt 0.131267 -0.940887 0.000000
vt -0.210587 0.926366 0.000000
vt -0.364114 0.877451 0.000000
vt -0.507167 0.803294 0.000000
vt -0.635629 0.706028 0.000000
vt 0.250000 0.200000 0.000000
vt -0.400000 0.200000 0.000000
vt 0.250000 0.000000 0.000000
vt -0.400000 0.000000 0.000000
vt 0.250000 0.000000 0.000000
vt 0.900000 0.000000 0.000000
vt 0.250000 0.200000 0.000000
vt 0.900000 0.200000 0.000000
vt 0.000000 0.000000 0.000000
vt 0.061917 0.000000 0.000000
vt 0.000000 0.200000 0.000000
vt 0.061917 0.200000 0.000000
vt 0.050000 0.010695 0.000000
vt -0.000000 -0.050210 0.000000
vt 0.050000 -0.150630 0.000000
vt -0.000000 -0.150630 0.000000
vt 0.050000 -0.311955 0.000000
vt -0.200000 -0.150630 0.000000
vt -0.250000 -0.311955 0.000000
vt -0.250000 -0.150630 0.000000
vt -0.200000 -0.050210 0.000000
vt -0.250000 0.010695 0.000000
vt -0.200000 0.050210 0.000000
vt -0.250000 0.172020 0.000000
vt -0.200000 0.150630 0.000000
vt -0.000000 0.150630 0.000000
vt -0.000000 0.050210 0.000000
vt 0.050000 0.172020 0.000000
vt 0.050000 0.333345 0.000000
vt -0.250000 0.333345 0.000000
vt 0.050000 0.494670 0.000000
vt -0.250000 0.494670 0.000000
vt 0.050000 0.655995 0.000000
vt -0.250000 0.655995 0.000000
vt 0.050000 0.817320 0.000000
vt -0.250000 0.817320 0.000000
vt 0.050000 0.978645 0.000000
vt -0.250000 0.978645 0.000000
vt 0.050000 1.139970 0.000000
vt -0.250000 1.139970 0.000000
vt 0.050000 1.301295 0.000000
vt -0.250000 1.301295 0.000000
vt 0.050000 1.462620 0.000000
vt -0.250000 1.462620 0.000000
vt 0.050000 1.623945 0.000000
vt -0.250000 1.623945 0.000000
vt 0.050000 1.785270 0.000000
vt -0.250000 1.785270 0.000000
vt 0.050000 1.946595 0.000000
vt -0.250000 1.946595 0.000000
vt 0.050000 2.107920 0.000000
vt -0.250000 2.107920 0.000000
vt 0.050000 2.269245 0.000000
vt -0.250000 2.269245 0.000000
vt 0.050000 2.430570 0.000000
vt -0.250000 2.430570 0.000000
vt 0.050000 2.591895 0.000000
vt -0.250000 2.591895 0.000000
vt 0.050000 2.753220 0.000000
vt -0.250000 2.753220 0.000000
vt 0.050000 2.914545 0.000000
vt -0.250000 2.914545 0.000000
vt 0.050000 3.075870 0.000000
vt -0.250000 3.075870 0.000000
vt -0.250000 -2.893156 0.000000
vt 0.050000 -2.893156 0.000000
vt 0.050000 -2.731831 0.000000
vt -0.250000 -2.731831 0.000000
vt 0.050000 -2.570506 0.000000
vt -0.250000 -2.570506 0.000000
vt 0.050000 -2.409181 0.000000
vt -0.250000 -2.409181 0.000000
vt 0.050000 -2.247856 0.000000
vt -0.250000 -2.247856 0.000000
vt 0.050000 -2.086531 0.000000
vt -0.250000 -2.086531 0.000000
vt 0.050000 -1.925206 0.000000
vt -0.250000 -1.925206 0.000000
vt 0.050000 -1.763881 0.000000
vt -0.250000 -1.763881 0.000000
vt 0.050000 -1.602556 0.000000
vt -0.250000 -1.602556 0.000000
vt 0.050000 -1.441231 0.000000
vt -0.250000 -1.441231 0.000000
vt 0.050000 -1.279906 0.000000
vt -0.250000 -1.279906 0.000000
vt 0.050000 -1.118581 0.000000
vt -0.250000 -1.118581 0.000000
vt 0.050000 -0.957256 0.000000
vt -0.250000 -0.957256 0.000000
vt 0.050000 -0.795930 0.000000
vt -0.250000 -0.795930 0.000000
vt 0.050000 -0.634605 0.000000
vt -0.250000 -0.634605 0.000000
vt 0.050000 -0.473280 0.000000
vt -0.250000 -0.473280 0.000000
vt 0.000000 0.000000 0.000000
vt 0.061917 0.000000 0.000000
vt 0.000000 0.200000 0.000000
vt 0.061917 0.200000 0.000000
vn -0.030902 -0.095106 0.000000
vn -0.030902 -0.095106 0.000000
vn -0.030902 -0.095106 0.000000
vn -0.030902 -0.095106 0.000000
vn -0.100000 -0.000000 0.000000
vn -0.100000 -0.000000 0.000000
vn -0.100000 -0.000000 0.000000
vn -0.100000 -0.000000 0.000000
vn 0.080902 -0.058779 0.000000
vn 0.080902 -0.058779 0.000000
vn 0.080902 -0.058779 0.000000
vn 0.080902 -0.058779 0.000000
vn -0.030902 -0.095106 0.000000
vn -0.030902 -0.095106 0.000000
vn -0.030902 -0.095106 0.000000
vn -0.030902 -0.095106 0.000000
vn 0.080902 0.058779 0.000000
vn 0.080902 0.058779 0.000000
vn 0.080902 0.058779 0.000000
vn 0.080902 0.058779 0.000000
vn 0.080902 -0.058779 0.000000
vn 0.080902 -0.058779 0.000000
vn 0.080902 -0.058779 0.000000
vn 0.080902 -0.058779 0.000000
vn -0.030902 0.095106 -0.000000
vn -0.030902 0.095106 -0.000000
vn -0.030902 0.095106 -0.000000
vn -0.030902 0.095106 -0.000000
vn 0.080902 0.058779 0.000000
vn 0.080902 0.058779 0.000000
vn 0.080902 0.058779 0.000000
vn 0.080902 0.058779 0.000000
vn -0.100000 -0.000000 0.000000
vn -0.100000 -0.000000 0.000000
vn -0.100000 -0.000000 0.000000
vn -0.100000 -0.000000 0.000000
vn -0.030902 0.095106 -0.000000
vn -0.030902 0.095106 -0.000000
vn -0.030902 0.095106 -0.000000
vn -0.030902 0.095106 -0.000000
vn 0.000000 0.000000 0.100000
vn 0.000000 0.000000 0.100000
vn 0.000000 0.000000 0.100000
vn 0.000000 0.000000 0.100000
vn 0.000000 0.000000 0.100000
vn 0.000000 0.000000 0.100000
vn 0.000000 0.000000 0.100000
vn 0.000000 0.000000 0.100000
vn 0.000000 0.000000 0.100000
vn 0.000000 0.000000 0.100000
vn -0.070711 0.070711 0.000000
vn -0.070711 0.070711 0.000000
vn -0.070711 0.070711 0.000000
vn -0.070711 0.070711 0.000000
vn -0.100000 0.000000 0.000000
vn -0.100000 0.000000 0.000000
vn -0.100000 0.000000 0.000000
vn -0.100000 0.000000 0.000000
vn 0.000000 0.000000 -0.100000
vn 0.000000 0.000000 -0.100000
vn 0.000000 0.000000 -0.100000
vn 0.000000 0.000000 -0.100000
vn 0.000000 0.000000 -0.100000
vn 0.000000 0.000000 -0.100000
vn 0.000000 0.000000 -0.100000
vn 0.000000 0.000000 -0.100000
vn 0.000000 0.000000 -0.100000
vn 0.000000 0.000000 -0.100000
vn 0.000000 0.000000 -0.100000
vn 0.000000 0.000000 -0.100000
vn -0.070711 -0.070711 0.000000
vn -0.070711 -0.070711 0.000000
vn -0.070711 -0.070711 0.000000
vn -0.070711 -0.070711 0.000000
vn -0.100000 0.000000 0.000000
vn -0.100000 0.000000 0.000000
vn -0.100000 0.000000 0.000000
vn -0.100000 0.000000 0.000000
vn 0.000000 0.000000 0.100000
vn 0.000000 0.000000 0.100000
vn 0.000000 0.000000 0.100000
vn 0.000000 0.000000 0.100000
vn 0.000000 0.000000 0.100000
vn 0.000000 0.000000 0.100000
vn 0.000000 0.000000 0.100000
vn 0.000000 0.000000 0.100000
vn 0.000000 0.000000 0.100000
vn 0.000000 0.000000 0.100000
vn 0.000000 0.000000 0.100000
vn 0.000000 0.000000 0.100000
vn 0.100000 0.000000 0.000000
vn 0.100000 0.000000 0.000000
vn 0.100000 0.000000 0.000000
vn 0.100000 0.000000 0.000000
vn 0.000000 0.000000 -0.100000
vn 0.000000 0.000000 -0.100000
vn 0.000000 0.000000 -0.100000
vn 0.000000 0.000000 -0.100000
vn 0.000000 0.000000 -0.100000
vn 0.000000 0.000000 -0.100000
vn 0.000000 0.000000 -0.100000
vn 0.000000 0.000000 -0.100000
vn 0.000000 0.000000 -0.100000
vn 0.000000 0.000000 -0.100000
vn 0.000000 0.000000 -0.100000
vn 0.000000 0.000000 -0.100000
vn 0.000000 0.000000 -0.100000
vn 0.000000 0.000000 -0.100000
vn 0.000000 0.000000 -0.100000
vn 0.000000 0.000000 -0.100000
vn 0.000000 0.000000 -0.100000
vn 0.000000 0.000000 -0.100000
vn 0.000000 0.000000 -0.100000
vn 0.000000 0.000000 -0.100000
vn 0.000000 0.000000 -0.100000
vn 0.000000 0.000000 -0.100000
vn 0.000000 0.000000 -0.100000
vn 0.000000 0.000000 -0.100000
vn 0.000000 0.000000 -0.100000
vn 0.000000 0.000000 -0.100000
vn 0.000000 0.000000 -0.100000
vn 0.000000 0.000000 -0.100000
vn 0.000000 0.000000 -0.100000
vn 0.000000 0.000000 -0.100000
vn 0.000000 0.000000 -0.100000
vn 0.000000 0.000000 -0.100000
vn 0.000000 0.000000 -0.100000
vn 0.000000 0.000000 -0.100000
vn 0.000000 0.000000 -0.100000
vn 0.000000 0.000000 -0.100000
vn 0.000000 0.000000 -0.100000
vn 0.000000 0.000000 0.100000
vn 0.000000 0.000000 0.100000
vn 0.000000 0.000000 0.100000
vn 0.000000 0.000000 0.100000
vn 0.000000 0.000000 0.100000
vn 0.000000 0.000000 0.100000
vn 0.000000 0.000000 0.100000
vn 0.000000 0.000000 0.100000
vn 0.000000 0.000000 0.100000
vn 0.000000 0.000000 0.100000
vn 0.000000 0.000000 0.100000
vn 0.000000 0.000000 0.100000
vn 0.000000 0.000000 0.100000
vn 0.000000 0.000000 0.100000
vn 0.000000 0.000000 0.100000
vn 0.000000 0.000000 0.100000
vn 0.000000 0.000000 0.100000
vn 0.000000 0.000000 0.100000
vn 0.000000 0.000000 0.100000
vn 0.000000 0.000000 0.100000
vn 0.000000 0.000000 0.100000
vn 0.000000 0.000000 0.100000
vn 0.000000 0.000000 0.100000
vn 0.000000 0.000000 0.100000
vn 0.000000 0.000000 0.100000
vn 0.000000 0.000000 0.100000
vn 0.000000 0.000000 0.100000
vn 0.000000 0.000000 0.100000
vn 0.000000 0.000000 0.100000
vn 0.000000 0.000000 0.100000
vn 0.000000 0.000000 0.100000
vn 0.000000 0.000000 0.100000
vn 0.000000 0.000000 0.100000
vn 0.000000 0.000000 0.100000
vn 0.000000 0.000000 0.100000
vn 0.000000 0.000000 0.100000
vn 0.000000 0.000000 0.100000
vn 0.000000 0.000000 0.100000
vn 0.000000 0.000000 0.100000
vn 0.000000 0.000000 0.100000
vn 0.000000 0.000000 0.100000
vn 0.000000 0.000000 0.100000
vn 0.000000 0.000000 0.100000
vn 0.000000 0.000000 0.100000
vn 0.000000 0.000000 0.100000
vn 0.000000 0.000000 0.100000
vn 0.000000 0.000000 0.100000
vn 0.000000 0.100000 0.000000
vn 0.000000 0.100000 0.000000
vn 0.000000 0.100000 0.000000
vn 0.000000 0.100000 0.000000
vn 0.000000 -0.100000 0.000000
vn 0.000000 -0.100000 0.000000
vn 0.000000 -0.100000 0.000000
vn 0.000000 -0.100000 0.000000
vn 0.000000 -0.100000 0.000000
vn 0.000000 -0.100000 0.000000
vn 0.000000 -0.100000 0.000000
vn 0.000000 -0.100000 0.000000
vn 0.099994 0.001126 0.000000
vn 0.099860 -0.005283 0.000000
vn 0.098746 -0.015789 0.000000
vn 0.098746 -0.015789 0.000000
vn 0.094657 -0.032250 0.000000
vn 0.098746 -0.015789 0.000000
vn 0.094657 -0.032250 0.000000
vn 0.098746 -0.015789 0.000000
vn 0.099860 -0.005283 0.000000
vn 0.099994 0.001126 0.000000
vn 0.099860 0.005283 0.000000
vn 0.098365 0.018009 0.000000
vn 0.098746 0.015789 0.000000
vn 0.098746 0.015789 0.000000
vn 0.099860 0.005283 0.000000
vn 0.098365 0.018009 0.000000
vn 0.093907 0.034373 0.000000
vn 0.093907 0.034373 0.000000
vn 0.086747 0.049749 0.000000
vn 0.086747 0.049749 0.000000
vn 0.077091 0.063694 0.000000
vn 0.077091 0.063694 0.000000
vn 0.065218 0.075806 0.000000
vn 0.065218 0.075806 0.000000
vn 0.051469 0.085738 0.000000
vn 0.051469 0.085738 0.000000
vn 0.036239 0.093203 0.000000
vn 0.036239 0.093203 0.000000
vn 0.019966 0.097986 0.000000
vn 0.019966 0.097986 0.000000
vn 0.003119 0.099951 0.000000
vn 0.003119 0.099951 0.000000
vn -0.013818 0.099041 -0.000000
vn -0.013818 0.099041 -0.000000
vn -0.030357 0.095281 -0.000000
vn -0.030357 0.095281 -0.000000
vn -0.046023 0.088780 -0.000000
vn -0.046023 0.088780 -0.000000
vn -0.060365 0.079725 -0.000000
vn -0.060365 0.079725 -0.000000
vn -0.072970 0.068377 -0.000000
vn -0.072970 0.068377 -0.000000
vn -0.083476 0.055061 -0.000000
vn -0.083476 0.055061 -0.000000
vn -0.091581 0.040162 -0.000000
vn -0.091581 0.040162 -0.000000
vn -0.097051 0.024107 -0.000000
vn -0.097051 0.024107 -0.000000
vn -0.099729 0.007358 -0.000000
vn -0.099729 0.007358 -0.000000
vn -0.099538 -0.009602 0.000000
vn -0.099538 -0.009602 0.000000
vn -0.096484 -0.026286 0.000000
vn -0.096484 -0.026286 0.000000
vn -0.090653 -0.042213 0.000000
vn -0.090653 -0.042213 0.000000
vn -0.082215 -0.056927 0.000000
vn -0.082215 -0.056927 0.000000
vn -0.071412 -0.070002 0.000000
vn -0.071412 -0.070002 0.000000
vn -0.058554 -0.081064 0.000000
vn -0.058554 -0.081064 0.000000
vn -0.044012 -0.089794 0.000000
vn -0.044012 -0.089794 0.000000
vn -0.028204 -0.095940 0.000000
vn -0.028204 -0.095940 0.000000
vn -0.011584 -0.099327 0.000000
vn -0.011584 -0.099327 0.000000
vn 0.005369 -0.099856 0.000000
vn 0.005369 -0.099856 0.000000
vn 0.022167 -0.097512 0.000000
vn 0.022167 -0.097512 0.000000
vn 0.038328 -0.092363 0.000000
vn 0.038328 -0.092363 0.000000
vn 0.053386 -0.084557 0.000000
vn 0.053386 -0.084557 0.000000
vn 0.066908 -0.074319 0.000000
vn 0.066908 -0.074319 0.000000
vn 0.078506 -0.061942 0.000000
vn 0.078506 -0.061942 0.000000
vn 0.087845 -0.047784 0.000000
vn 0.087845 -0.047784 0.000000
vn 0.000000 0.100000 0.000000
vn 0.000000 0.100000 0.000000
vn 0.000000 0.100000 0.000000
vn 0.000000 0.100000 0.000000
usemtl Brass_-_Polished
f 1/1/1 2/2/2 4/3/3
f 4/3/3 2/2/2 3/4/4
f 2/5/5 5/6/6 3/7/7
f 3/7/7 5/6/6 6/8/8
f 5/9/9 7/10/10 6/11/11
f 6/11/11 7/10/10 8/12/12
f 7/13/13 9/14/14 8/15/15
f 8/15/15 9/14/14 10/16/16
f 9/17/17 11/18/18 10/19/19
f 10/19/19 11/18/18 12/20/20
f 11/21/21 13/22/22 12/23/23
f 12/23/23 13/22/22 14/24/24
f 13/25/25 15/26/26 14/27/27
f 14/27/27 15/26/26 16/28/28
f 15/29/29 17/30/30 16/31/31
f 16/31/31 17/30/30 18/32/32
f 17/33/33 19/34/34 18/35/35
f 18/35/35 19/34/34 20/36/36
f 19/37/37 1/38/38 20/39/39
f 20/39/39 1/38/38 4/40/40
f 4/41/41 3/42/42 20/43/43
f 20/43/43 3/42/42 8/44/44
f 20/43/43 8/44/44 16/45/45
f 16/45/45 8/44/44 12/46/46
f 16/45/45 12/46/46 14/47/47
f 3/42/42 6/48/48 8/44/44
f 8/44/44 10/49/49 12/46/46
f 16/45/45 18/50/50 20/43/43
usemtl Plastic_-_Matte_(Black)_(1)_(2)
f 22/51/51 23/52/52 21/53/53
f 21/53/53 23/52/52 24/54/54
f 24/55/55 25/56/56 21/57/57
f 21/57/57 25/56/56 26/58/58
f 24/59/59 23/60/60 25/61/61
f 25/61/61 23/60/60 28/62/62
f 25/61/61 28/62/62 31/63/63
f 31/63/63 28/62/62 29/64/64
f 31/63/63 29/64/64 30/65/65
f 23/60/60 27/66/66 28/62/62
f 32/67/67 33/68/68 31/63/63
f 31/63/63 33/68/68 25/61/61
f 33/68/68 34/69/69 25/61/61
f 25/61/61 34/69/69 35/70/70
f 37/71/71 30/72/72 36/73/73
f 36/73/73 30/72/72 29/74/74
f 37/75/75 38/76/76 30/77/77
f 30/77/77 38/76/76 31/78/78
f 21/79/79 26/80/80 22/81/81
f 22/81/81 26/80/80 43/82/82
f 22/81/81 43/82/82 44/83/83
f 39/84/84 40/85/85 26/80/80
f 26/80/80 40/85/85 41/86/86
f 26/80/80 41/86/86 38/87/87
f 38/87/87 41/86/86 42/88/88
f 37/89/89 36/90/90 38/87/87
f 38/87/87 36/90/90 43/82/82
f 38/87/87 43/82/82 26/80/80
f 27/91/91 44/92/92 28/93/93
f 28/93/93 44/92/92 43/94/94
usemtl Brass_-_Polished
f 81/95/95 45/96/96 66/97/97
f 66/97/97 45/96/96 46/98/98
f 66/97/97 46/98/98 47/99/99
f 47/99/99 48/100/100 66/97/97
f 66/97/97 48/100/100 49/101/101
f 66/97/97 49/101/101 50/102/102
f 50/102/102 51/103/103 66/97/97
f 66/97/97 51/103/103 52/104/104
f 66/97/97 52/104/104 53/105/105
f 53/105/105 54/106/106 66/97/97
f 66/97/97 54/106/106 55/107/107
f 66/97/97 55/107/107 56/108/108
f 56/108/108 57/109/109 66/97/97
f 66/97/97 57/109/109 58/110/110
f 66/97/97 58/110/110 59/111/111
f 59/111/111 60/112/112 66/97/97
f 66/97/97 60/112/112 65/113/113
f 65/113/113 60/112/112 61/114/114
f 65/113/113 61/114/114 64/115/115
f 64/115/115 61/114/114 62/116/116
f 64/115/115 62/116/116 63/117/117
f 67/118/118 77/119/119 66/97/97
f 66/97/97 77/119/119 78/120/120
f 66/97/97 78/120/120 79/121/121
f 77/119/119 67/118/118 76/122/122
f 76/122/122 67/118/118 68/123/123
f 76/122/122 68/123/123 75/124/124
f 75/124/124 68/123/123 69/125/125
f 75/124/124 69/125/125 74/126/126
f 74/126/126 69/125/125 70/127/127
f 74/126/126 70/127/127 73/128/128
f 73/128/128 70/127/127 71/129/129
f 73/128/128 71/129/129 72/130/130
f 79/121/121 80/131/131 66/97/97
f 66/97/97 80/131/131 81/95/95
f 5/132/132 2/133/133 87/134/134
f 87/134/134 2/133/133 1/135/135
f 87/134/134 1/135/135 86/136/136
f 86/136/136 1/135/135 85/137/137
f 85/137/137 1/135/135 84/138/138
f 84/138/138 1/135/135 83/139/139
f 83/139/139 1/135/135 82/140/140
f 82/140/140 1/135/135 118/141/141
f 118/141/141 1/135/135 117/142/142
f 117/142/142 1/135/135 116/143/143
f 116/143/143 1/135/135 19/144/144
f 116/143/143 19/144/144 17/145/145
f 15/146/146 109/147/147 17/145/145
f 17/145/145 109/147/147 110/148/148
f 17/145/145 110/148/148 111/149/149
f 15/146/146 13/150/150 109/147/147
f 109/147/147 13/150/150 108/151/151
f 108/151/151 13/150/150 107/152/152
f 107/152/152 13/150/150 106/153/153
f 106/153/153 13/150/150 105/154/154
f 105/154/154 13/150/150 104/155/155
f 104/155/155 13/150/150 103/156/156
f 103/156/156 13/150/150 102/157/157
f 102/157/157 13/150/150 11/158/158
f 102/157/157 11/158/158 101/159/159
f 101/159/159 11/158/158 9/160/160
f 101/159/159 9/160/160 100/161/161
f 100/161/161 9/160/160 99/162/162
f 99/162/162 9/160/160 98/163/163
f 98/163/163 9/160/160 97/164/164
f 97/164/164 9/160/160 96/165/165
f 96/165/165 9/160/160 95/166/166
f 95/166/166 9/160/160 94/167/167
f 94/167/167 9/160/160 7/168/168
f 94/167/167 7/168/168 5/132/132
f 87/134/134 88/169/169 5/132/132
f 5/132/132 88/169/169 89/170/170
f 5/132/132 89/170/170 90/171/171
f 90/171/171 91/172/172 5/132/132
f 5/132/132 91/172/172 92/173/173
f 5/132/132 92/173/173 93/174/174
f 93/174/174 94/167/167 5/132/132
f 111/149/149 112/175/175 17/145/145
f 17/145/145 112/175/175 113/176/176
f 17/145/145 113/176/176 114/177/177
f 114/177/177 115/178/178 17/145/145
f 17/145/145 115/178/178 116/143/143
usemtl Plastic_-_Matte_(Black)_(1)_(2)
f 22/179/179 44/180/180 23/181/181
f 23/181/181 44/180/180 27/182/182
f 29/183/183 28/184/184 36/185/185
f 36/185/185 28/184/184 43/186/186
f 32/187/187 31/188/188 42/189/189
f 42/189/189 31/188/188 38/190/190
usemtl Brass_-_Polished
f 81/191/191 33/192/192 45/193/193
f 45/193/193 33/192/192 32/194/194
f 45/193/193 32/194/194 46/195/195
f 46/195/195 32/194/194 42/196/196
f 46/195/195 42/196/196 118/197/197
f 118/197/197 42/196/196 82/198/198
f 82/198/198 42/196/196 41/199/199
f 82/198/198 41/199/199 83/200/200
f 83/200/200 41/199/199 40/201/201
f 83/200/200 40/201/201 84/202/202
f 84/202/202 40/201/201 39/203/203
f 84/202/202 39/203/203 35/204/204
f 33/192/192 81/191/191 34/205/205
f 34/205/205 81/191/191 80/206/206
f 34/205/205 80/206/206 35/204/204
f 35/204/204 80/206/206 84/202/202
f 80/206/206 79/207/207 84/202/202
f 84/202/202 79/207/207 85/208/208
f 85/208/208 79/207/207 78/209/209
f 85/208/208 78/209/209 86/210/210
f 86/210/210 78/209/209 77/211/211
f 86/210/210 77/211/211 87/212/212
f 87/212/212 77/211/211 76/213/213
f 87/212/212 76/213/213 88/214/214
f 88/214/214 76/213/213 75/215/215
f 88/214/214 75/215/215 89/216/216
f 89/216/216 75/215/215 74/217/217
f 89/216/216 74/217/217 90/218/218
f 90/218/218 74/217/217 73/219/219
f 90/218/218 73/219/219 91/220/220
f 91/220/220 73/219/219 72/221/221
f 91/220/220 72/221/221 92/222/222
f 92/222/222 72/221/221 71/223/223
f 92/222/222 71/223/223 93/224/224
f 93/224/224 71/223/223 70/225/225
f 93/224/224 70/225/225 94/226/226
f 94/226/226 70/225/225 69/227/227
f 94/226/226 69/227/227 95/228/228
f 95/228/228 69/227/227 68/229/229
f 95/228/228 68/229/229 96/230/230
f 96/230/230 68/229/229 67/231/231
f 96/230/230 67/231/231 97/232/232
f 97/232/232 67/231/231 66/233/233
f 97/232/232 66/233/233 98/234/234
f 98/234/234 66/233/233 65/235/235
f 98/234/234 65/235/235 99/236/236
f 99/236/236 65/235/235 64/237/237
f 99/236/236 64/237/237 100/238/238
f 100/238/238 64/237/237 63/239/239
f 100/238/238 63/239/239 101/240/240
f 101/240/240 63/239/239 62/241/241
f 101/240/240 62/241/241 102/242/242
f 102/243/242 62/244/241 61/245/243
f 102/243/242 61/245/243 103/246/244
f 103/246/244 61/245/243 60/247/245
f 103/246/244 60/247/245 104/248/246
f 104/248/246 60/247/245 59/249/247
f 104/248/246 59/249/247 105/250/248
f 105/250/248 59/249/247 58/251/249
f 105/250/248 58/251/249 106/252/250
f 106/252/250 58/251/249 57/253/251
f 106/252/250 57/253/251 107/254/252
f 107/254/252 57/253/251 56/255/253
f 107/254/252 56/255/253 108/256/254
f 108/256/254 56/255/253 55/257/255
f 108/256/254 55/257/255 109/258/256
f 109/258/256 55/257/255 54/259/257
f 109/258/256 54/259/257 110/260/258
f 110/260/258 54/259/257 53/261/259
f 110/260/258 53/261/259 111/262/260
f 111/262/260 53/261/259 52/263/261
f 111/262/260 52/263/261 112/264/262
f 112/264/262 52/263/261 51/265/263
f 112/264/262 51/265/263 113/266/264
f 113/266/264 51/265/263 50/267/265
f 113/266/264 50/267/265 114/268/266
f 114/268/266 50/267/265 49/269/267
f 114/268/266 49/269/267 115/270/268
f 115/270/268 49/269/267 48/271/269
f 115/270/268 48/271/269 116/272/270
f 116/272/270 48/271/269 47/273/271
f 116/272/270 47/273/271 117/274/272
f 117/274/272 47/273/271 46/195/195
f 117/274/272 46/195/195 118/197/197
usemtl Plastic_-_Matte_(Black)_(1)_(2)
f 25/275/273 35/276/274 26/277/275
f 26/277/275 35/276/274 39/278/276
# 118 vertices
# 278 texture params
# 276 normals
# 232 facets

# 1 groups
