# WaveFront *.obj file (generated by Autodesk ATF)

mtllib Panzer-turret.mtl

g Body373

v 22.965628 -51.670853 14.737690
v 22.965628 -51.687673 14.691478
v 22.965628 -51.730262 14.666889
v 22.965628 -51.778693 14.675429
v 22.965628 -51.810304 14.713101
v 22.965628 -51.810304 14.762279
v 22.965628 -51.778693 14.799951
v 22.965628 -51.730262 14.808491
v 22.965628 -51.687673 14.783902
v 27.790900 -51.240614 14.968048
v 27.773237 -51.240614 15.000000
v 27.773237 -51.240614 14.968048
v 27.773237 -52.244878 15.000000
v 27.790900 -52.244878 14.968048
v 27.773237 -52.244878 14.968048
v 27.872816 -51.742746 15.000000
v 27.872816 -51.742746 14.968048
v 28.497714 -52.244878 14.968048
v 28.541332 -52.202423 14.968048
v 28.571532 -52.160706 14.968048
v 28.615061 -52.066307 14.968048
v 28.634688 -51.997336 14.968048
v 28.650328 -51.915947 14.968048
v 28.664824 -51.742746 14.968048
v 28.652037 -51.580990 14.968048
v 28.619165 -51.431629 14.968048
v 28.597704 -51.374650 14.968048
v 28.574724 -51.330048 14.968048
v 28.543765 -51.285975 14.968048
v 28.497714 -51.240614 14.968048
v 28.497714 -51.240614 14.846460
v 27.858114 -51.240614 14.846460
v 28.664824 -51.742746 14.520714
v 28.648769 -51.559713 14.520714
v 28.598272 -51.375945 14.520714
v 28.598272 -51.375945 14.794816
v 28.571229 -51.324300 14.846460
v 28.497714 -52.244878 14.846460
v 28.571229 -52.161192 14.846460
v 28.598272 -52.109548 14.794816
v 28.598272 -52.109548 14.520714
v 28.648769 -51.925780 14.520714
v 23.163322 -51.622938 14.737690
v 23.163322 -51.645819 14.808112
v 23.163322 -51.705724 14.851635
v 23.163322 -51.779769 14.851635
v 23.163322 -51.839673 14.808112
v 23.163322 -51.862555 14.737690
v 23.163322 -51.839673 14.667268
v 23.163322 -51.779769 14.623745
v 23.163322 -51.705724 14.623745
v 23.163322 -51.645819 14.667268
v 23.251297 -51.824082 14.737690
v 23.251297 -51.805053 14.789971
v 23.251297 -51.756870 14.817790
v 23.251297 -51.702079 14.808129
v 23.251297 -51.666316 14.765508
v 23.251297 -51.666316 14.709872
v 23.251297 -51.702079 14.667252
v 23.251297 -51.756870 14.657590
v 23.251297 -51.805053 14.685409
v 23.203287 -51.834120 14.737690
v 23.203287 -51.807358 14.802301
v 23.203287 -51.777714 14.822109
v 23.203287 -51.678135 14.802301
v 23.203287 -51.742746 14.829064
v 23.203287 -51.678135 14.673079
v 23.203287 -51.742746 14.646316
v 23.203287 -51.807358 14.673079
v 23.203287 -51.777714 14.653271
v 23.203287 -51.651372 14.737690
v 23.203287 -51.658328 14.772657
v 23.203287 -51.707779 14.822109
v 23.203287 -51.827165 14.772657
v 23.203287 -51.827165 14.702723
v 23.203287 -51.707779 14.653271
v 23.203287 -51.658328 14.702723
v 25.011056 -51.661411 14.737690
v 25.011056 -51.680440 14.685409
v 25.011056 -51.728623 14.657590
v 25.011056 -51.783414 14.667252
v 25.011056 -51.819177 14.709872
v 25.011056 -51.819177 14.765508
v 25.011056 -51.783414 14.808129
v 25.011056 -51.728623 14.817790
v 25.011056 -51.680440 14.789971
v 24.131177 -51.661411 14.737690
v 24.131177 -51.680440 14.685409
v 24.131177 -51.728623 14.657590
v 24.131177 -51.783414 14.667252
v 24.131177 -51.819177 14.709872
v 24.131177 -51.819177 14.765508
v 24.131177 -51.783414 14.808129
v 24.131177 -51.728623 14.817790
v 24.131177 -51.680440 14.789971
v 25.056367 -51.856385 14.737690
v 25.056367 -51.834682 14.804485
v 25.056367 -51.777863 14.845767
v 25.056367 -51.707630 14.845767
v 25.056367 -51.650810 14.804485
v 25.056367 -51.629107 14.737690
v 25.056367 -51.650810 14.670895
v 25.056367 -51.707630 14.629613
v 25.056367 -51.777863 14.629613
v 25.056367 -51.834682 14.670895
v 25.028543 -51.847483 14.737690
v 25.028543 -51.658013 14.799252
v 25.028543 -51.638010 14.737690
v 25.028543 -51.710381 14.837300
v 25.028543 -51.775112 14.837300
v 25.028543 -51.827480 14.799252
v 25.028543 -51.827480 14.676128
v 25.028543 -51.775112 14.638080
v 25.028543 -51.710381 14.638080
v 25.028543 -51.658013 14.676128
v 25.522295 -51.629107 14.737690
v 25.522295 -51.650810 14.670895
v 25.522295 -51.707630 14.629613
v 25.522295 -51.777863 14.629613
v 25.522295 -51.834682 14.670895
v 25.522295 -51.856385 14.737690
v 25.522295 -51.834682 14.804485
v 25.522295 -51.777863 14.845767
v 25.522295 -51.707630 14.845767
v 25.522295 -51.650810 14.804485
v 22.870246 -51.670853 14.737690
v 22.870246 -51.687673 14.691478
v 22.870246 -51.730262 14.666889
v 22.870246 -51.778693 14.675429
v 22.870246 -51.810304 14.713101
v 22.870246 -51.810304 14.762279
v 22.870246 -51.778693 14.799951
v 22.870246 -51.730262 14.808491
v 22.870246 -51.687673 14.783902
v 23.093912 -51.622938 14.737690
v 23.093912 -51.645819 14.667268
v 23.093912 -51.705724 14.623745
v 23.093912 -51.779769 14.623745
v 23.093912 -51.839673 14.667268
v 23.093912 -51.862555 14.737690
v 23.093912 -51.839673 14.808112
v 23.093912 -51.779769 14.851635
v 23.093912 -51.705724 14.851635
v 23.093912 -51.645819 14.808112
v 23.093912 -51.661411 14.737690
v 23.093912 -51.680440 14.789971
v 23.093912 -51.728623 14.817790
v 23.093912 -51.783414 14.808129
v 23.093912 -51.819177 14.765508
v 23.093912 -51.819177 14.709872
v 23.093912 -51.783414 14.667252
v 23.093912 -51.728623 14.657590
v 23.093912 -51.680440 14.685409
v 22.966103 -51.622938 14.737690
v 22.966103 -51.645819 14.808112
v 22.966103 -51.705724 14.851635
v 22.966103 -51.779769 14.851635
v 22.966103 -51.839673 14.808112
v 22.966103 -51.862555 14.737690
v 22.966103 -51.839673 14.667268
v 22.966103 -51.779769 14.623745
v 22.966103 -51.705724 14.623745
v 22.966103 -51.645819 14.667268
v 22.966103 -51.661411 14.737690
v 22.966103 -51.680440 14.685409
v 22.966103 -51.728623 14.657590
v 22.966103 -51.783414 14.667252
v 22.966103 -51.819177 14.709872
v 22.966103 -51.819177 14.765508
v 22.966103 -51.783414 14.808129
v 22.966103 -51.728623 14.817790
v 22.966103 -51.680440 14.789971
v 22.870246 -51.622938 14.737690
v 22.870246 -51.645819 14.808112
v 22.870246 -51.705724 14.851635
v 22.870246 -51.779769 14.851635
v 22.870246 -51.839673 14.808112
v 22.870246 -51.862555 14.737690
v 22.870246 -51.839673 14.667268
v 22.870246 -51.779769 14.623745
v 22.870246 -51.705724 14.623745
v 22.870246 -51.645819 14.667268
v 26.188718 -50.894756 14.520714
v 26.276354 -50.868954 14.456809
v 25.969628 -51.150976 14.456809
v 25.969628 -50.959262 14.680476
v 26.077485 -50.932381 14.596139
v 26.852331 -50.699372 14.520714
v 26.852331 -50.699372 14.456809
v 25.969628 -52.026743 14.925956
v 25.969628 -52.026743 14.549424
v 25.969628 -51.458750 14.549424
v 25.969628 -51.458750 14.925956
v 25.969628 -52.334517 14.456809
v 25.969628 -52.526231 14.680476
v 25.969628 -52.526231 14.936095
v 25.969628 -50.959262 14.936095
v 26.276354 -52.616539 14.456809
v 26.188718 -52.590736 14.520714
v 26.077485 -52.553112 14.596139
v 26.852331 -52.786121 14.520714
v 26.826809 -52.526231 15.000000
v 26.800391 -52.526231 15.000000
v 26.385012 -52.534610 14.968048
v 26.404599 -52.591203 14.760357
v 26.407789 -52.623690 14.640536
v 26.403004 -52.574960 14.820268
v 26.406194 -52.607446 14.700446
v 26.409384 -52.639933 14.580625
v 26.401409 -52.558717 14.880178
v 28.065026 -51.375945 14.520714
v 27.913501 -51.375945 14.794816
v 27.874710 -51.324300 14.846460
v 27.913501 -52.109548 14.794816
v 28.065026 -52.109548 14.520714
v 27.858114 -52.244878 14.846460
v 27.874710 -52.161192 14.846460
v 28.137767 -51.742746 14.520714
v 27.753902 -52.342376 15.000000
v 27.975005 -52.563479 14.520714
v 27.769878 -51.742746 15.223667
v 27.747725 -51.609989 15.223667
v 27.683666 -51.491618 15.223667
v 27.584642 -51.400460 15.223667
v 27.461386 -51.346395 15.223667
v 27.327252 -51.335280 15.223667
v 27.196778 -51.368321 15.223667
v 27.084101 -51.441937 15.223667
v 27.001432 -51.548149 15.223667
v 26.957730 -51.675450 15.223667
v 26.957730 -51.810043 15.223667
v 27.001432 -51.937343 15.223667
v 27.084101 -52.043556 15.223667
v 27.196778 -52.117172 15.223667
v 27.327252 -52.150212 15.223667
v 27.461386 -52.139098 15.223667
v 27.584642 -52.085032 15.223667
v 27.683666 -51.993875 15.223667
v 27.747725 -51.875504 15.223667
v 26.852331 -52.786121 14.456809
v 27.975005 -52.563479 14.456809
v 28.137767 -51.742746 14.456809
v 27.975005 -50.922014 14.520714
v 27.975005 -50.922014 14.456809
v 27.769878 -51.742746 15.000000
v 27.747725 -51.609989 15.000000
v 27.683666 -51.491618 15.000000
v 27.584642 -51.400460 15.000000
v 27.461386 -51.346395 15.000000
v 27.327252 -51.335280 15.000000
v 27.196778 -51.368321 15.000000
v 27.084101 -51.441937 15.000000
v 27.001432 -51.548149 15.000000
v 26.957730 -51.675450 15.000000
v 26.957730 -51.810043 15.000000
v 27.001432 -51.937343 15.000000
v 27.084101 -52.043556 15.000000
v 27.196778 -52.117172 15.000000
v 27.327252 -52.150212 15.000000
v 27.461386 -52.139098 15.000000
v 27.584642 -52.085032 15.000000
v 27.683666 -51.993875 15.000000
v 27.747725 -51.875504 15.000000
v 25.937676 -52.026743 14.549424
v 25.912830 -52.026743 14.643557
v 25.903923 -52.026743 14.737690
v 25.912830 -52.026743 14.831823
v 25.937676 -52.026743 14.925956
v 25.937676 -51.458753 14.925956
v 25.912830 -51.458757 14.831823
v 25.903923 -51.458757 14.737690
v 25.912830 -51.458757 14.643557
v 25.937676 -51.458755 14.549424
v 25.921656 -51.974270 14.872035
v 25.907643 -51.974270 14.798027
v 25.903923 -51.974270 14.737690
v 25.907643 -51.974270 14.677353
v 25.921656 -51.974270 14.603345
v 25.921656 -51.511222 14.603345
v 25.907643 -51.511222 14.677353
v 25.903923 -51.511222 14.737690
v 25.907643 -51.511222 14.798027
v 25.921656 -51.511222 14.872035
v 25.522295 -51.511222 14.603345
v 25.522295 -51.511222 14.872035
v 25.522295 -51.974270 14.603345
v 25.522295 -51.974270 14.872035
v 26.800391 -50.959262 15.000000
v 26.385008 -50.950882 14.968047
v 26.826809 -50.959262 15.000000
v 26.407789 -50.861803 14.640536
v 26.403004 -50.910532 14.820268
v 26.404599 -50.894289 14.760357
v 26.409384 -50.845560 14.580625
v 26.406194 -50.878046 14.700446
v 26.401409 -50.926775 14.880178
v 27.753902 -51.143117 15.000000
vt -0.007189 0.000000 0.000000
vt -0.005507 -0.004621 0.000000
vt -0.005507 0.004621 0.000000
vt -0.001248 -0.007080 0.000000
vt -0.001248 0.007080 0.000000
vt 0.003595 -0.006226 0.000000
vt 0.003595 0.006226 0.000000
vt 0.006756 -0.002459 0.000000
vt 0.006756 0.002459 0.000000
vt -0.001766 0.003195 0.000000
vt -0.000000 0.000000 0.000000
vt -0.000000 0.003195 0.000000
vt -0.072448 0.000000 0.000000
vt -0.070681 0.003195 0.000000
vt -0.072448 0.003195 0.000000
vt -0.051191 0.000000 0.000000
vt -0.000000 0.000000 0.000000
vt -0.051191 0.003195 0.000000
vt -0.000000 0.003195 0.000000
vt -0.051191 0.000000 0.000000
vt -0.000000 0.000000 0.000000
vt -0.051191 0.003195 0.000000
vt -0.000000 0.003195 0.000000
vt 0.042813 0.050213 0.000000
vt -0.027868 0.050213 0.000000
vt 0.034621 0.000000 0.000000
vt -0.032230 0.045968 0.000000
vt -0.035250 0.041796 0.000000
vt -0.039603 0.032356 0.000000
vt -0.041566 0.025459 0.000000
vt -0.043130 0.017320 0.000000
vt -0.044579 0.000000 0.000000
vt -0.043301 -0.016176 0.000000
vt -0.040013 -0.031112 0.000000
vt -0.037867 -0.036810 0.000000
vt -0.035569 -0.041270 0.000000
vt -0.032473 -0.045677 0.000000
vt -0.027868 -0.050213 0.000000
vt 0.042813 -0.050213 0.000000
vt 0.044579 -0.050213 0.000000
vt 0.044579 0.050213 0.000000
vt 0.001766 0.003195 0.000000
vt 0.072448 0.003195 0.000000
vt 0.008488 0.015354 0.000000
vt 0.072448 0.015354 0.000000
vt 0.000000 0.003195 0.000000
vt 0.007823 0.003195 0.000000
vt 0.000000 0.015354 0.000000
vt 0.013297 0.015354 0.000000
vt 0.014057 0.003195 0.000000
vt 0.019711 0.020518 0.000000
vt 0.019561 0.003195 0.000000
vt 0.025893 0.003195 0.000000
vt 0.041184 0.003195 0.000000
vt 0.039022 0.047929 0.000000
vt 0.019711 0.047929 0.000000
vt 0.058332 0.003195 0.000000
vt 0.058332 0.047929 0.000000
vt -0.058330 0.003195 0.000000
vt -0.040019 0.003195 0.000000
vt -0.058330 0.047929 0.000000
vt -0.039021 0.047929 0.000000
vt -0.031770 0.003195 0.000000
vt -0.019711 0.047929 0.000000
vt -0.024556 0.003195 0.000000
vt -0.019711 0.020518 0.000000
vt -0.013362 0.003195 0.000000
vt -0.013297 0.015354 0.000000
vt -0.007373 0.003195 0.000000
vt 0.000000 0.015354 0.000000
vt 0.000000 0.003195 0.000000
vt 0.027764 -0.005741 0.000000
vt 0.032703 -0.003588 0.000000
vt 0.027764 0.000000 0.000000
vt 0.032703 0.000000 0.000000
vt 0.032703 0.003588 0.000000
vt 0.037643 0.003190 0.000000
vt 0.032703 0.007177 0.000000
vt 0.037643 0.009569 0.000000
vt 0.032703 0.010765 0.000000
vt 0.032703 0.014353 0.000000
vt 0.027764 0.011482 0.000000
vt 0.027764 0.017224 0.000000
vt 0.032703 0.017941 0.000000
vt 0.032703 0.021530 0.000000
vt 0.037643 0.022327 0.000000
vt 0.032703 0.025118 0.000000
vt 0.037643 0.028706 0.000000
vt 0.032703 0.028706 0.000000
vt 0.032703 -0.028706 0.000000
vt 0.037643 -0.028706 0.000000
vt 0.032703 -0.025118 0.000000
vt 0.027764 -0.028706 0.000000
vt 0.027764 -0.022965 0.000000
vt 0.032703 -0.021530 0.000000
vt 0.027764 -0.017224 0.000000
vt 0.032703 -0.017941 0.000000
vt 0.032703 -0.014353 0.000000
vt 0.037643 -0.015948 0.000000
vt 0.037643 -0.009569 0.000000
vt 0.032703 -0.007177 0.000000
vt 0.027764 -0.011482 0.000000
vt 0.032703 -0.010765 0.000000
vt 0.027764 0.028706 0.000000
vt 0.027764 0.022965 0.000000
vt 0.027764 0.005741 0.000000
vt 0.037643 -0.022327 0.000000
vt 0.037643 -0.003190 0.000000
vt 0.037643 0.015948 0.000000
vt 0.012781 -0.019874 0.000000
vt -0.075207 -0.019874 0.000000
vt 0.012781 -0.025552 0.000000
vt -0.075207 -0.025552 0.000000
vt 0.012781 0.025552 0.000000
vt -0.075207 0.025552 0.000000
vt 0.012781 0.019874 0.000000
vt -0.075207 0.019874 0.000000
vt 0.012781 0.014196 0.000000
vt -0.075207 0.014196 0.000000
vt 0.012781 0.008517 0.000000
vt -0.075207 0.008517 0.000000
vt 0.012781 0.002839 0.000000
vt -0.075207 0.002839 0.000000
vt 0.012781 -0.002839 0.000000
vt -0.075207 -0.002839 0.000000
vt 0.012781 -0.008517 0.000000
vt -0.075207 -0.008517 0.000000
vt 0.012781 -0.014196 0.000000
vt -0.075207 -0.014196 0.000000
vt -0.163195 -0.005678 0.000000
vt -0.163195 0.000000 0.000000
vt -0.163195 0.005678 0.000000
vt -0.163195 0.011357 0.000000
vt -0.163195 0.017035 0.000000
vt -0.163195 0.022713 0.000000
vt -0.163195 0.028391 0.000000
vt -0.163195 -0.022713 0.000000
vt -0.163195 -0.017035 0.000000
vt -0.163195 -0.011357 0.000000
vt -0.005937 -0.007312 0.000000
vt -0.002969 -0.006581 0.000000
vt -0.005937 -0.000000 0.000000
vt -0.002969 0.000000 0.000000
vt -0.002969 0.006581 0.000000
vt 0.000000 -0.000000 0.000000
vt 0.000000 0.006581 0.000000
vt -0.002969 -0.013162 0.000000
vt -0.005937 -0.014624 0.000000
vt -0.002969 -0.019742 0.000000
vt -0.005937 -0.021936 0.000000
vt -0.002969 -0.026323 0.000000
vt -0.005937 -0.029248 0.000000
vt -0.002969 -0.032904 0.000000
vt -0.002969 0.032904 0.000000
vt -0.005937 0.036560 0.000000
vt -0.005937 0.029248 0.000000
vt -0.002969 0.026323 0.000000
vt -0.005937 0.021936 0.000000
vt -0.002969 0.019742 0.000000
vt -0.005937 0.014624 0.000000
vt -0.002969 0.013162 0.000000
vt -0.005937 0.007312 0.000000
vt 0.000000 -0.026323 0.000000
vt 0.000000 -0.032904 0.000000
vt 0.000000 0.032904 0.000000
vt 0.000000 0.026323 0.000000
vt 0.000000 0.019742 0.000000
vt 0.000000 0.013162 0.000000
vt 0.000000 -0.019742 0.000000
vt 0.000000 -0.013162 0.000000
vt 0.000000 -0.006581 0.000000
vt -0.000000 -0.028561 0.000000
vt -0.046593 -0.028561 0.000000
vt -0.000000 -0.035701 0.000000
vt -0.046593 -0.035701 0.000000
vt -0.000000 0.035701 0.000000
vt -0.046593 0.035701 0.000000
vt -0.000000 0.028561 0.000000
vt -0.046593 0.028561 0.000000
vt -0.000000 0.021420 0.000000
vt -0.046593 0.021420 0.000000
vt -0.000000 0.014280 0.000000
vt -0.046593 0.014280 0.000000
vt -0.000000 0.007140 0.000000
vt -0.046593 0.007140 0.000000
vt -0.000000 0.000000 0.000000
vt -0.046593 0.000000 0.000000
vt -0.000000 -0.007140 0.000000
vt -0.046593 -0.007140 0.000000
vt -0.000000 -0.014280 0.000000
vt -0.046593 -0.014280 0.000000
vt -0.000000 -0.021420 0.000000
vt -0.046593 -0.021420 0.000000
vt 0.009538 -0.017567 0.000000
vt 0.000000 -0.017567 0.000000
vt 0.009538 -0.022586 0.000000
vt 0.000000 -0.022586 0.000000
vt 0.009538 0.022586 0.000000
vt 0.000000 0.022586 0.000000
vt 0.009538 0.017567 0.000000
vt 0.000000 0.017567 0.000000
vt 0.009538 0.012548 0.000000
vt 0.000000 0.012548 0.000000
vt 0.009538 0.007529 0.000000
vt 0.000000 0.007529 0.000000
vt 0.009538 0.002510 0.000000
vt 0.000000 0.002510 0.000000
vt 0.009538 -0.002510 0.000000
vt 0.000000 -0.002510 0.000000
vt 0.009538 -0.007529 0.000000
vt 0.000000 -0.007529 0.000000
vt 0.009538 -0.012548 0.000000
vt 0.000000 -0.012548 0.000000
vt -0.009693 0.007042 0.000000
vt -0.011981 0.000000 0.000000
vt -0.008134 0.000000 0.000000
vt -0.009693 -0.007042 0.000000
vt -0.006231 -0.005228 0.000000
vt -0.003702 -0.011394 0.000000
vt -0.001412 -0.008010 0.000000
vt 0.003702 -0.011394 0.000000
vt 0.004067 -0.007044 0.000000
vt 0.009693 -0.007042 0.000000
vt 0.007643 -0.002782 0.000000
vt 0.011981 0.000000 0.000000
vt 0.007643 0.002782 0.000000
vt 0.009693 0.007042 0.000000
vt 0.004067 0.007044 0.000000
vt 0.003702 0.011394 0.000000
vt -0.001412 0.008010 0.000000
vt -0.003702 0.011394 0.000000
vt -0.006231 0.005228 0.000000
vt -0.012781 -0.030111 0.000000
vt -0.019722 -0.030111 0.000000
vt -0.012781 -0.037639 0.000000
vt -0.019722 -0.037639 0.000000
vt -0.012781 0.037639 0.000000
vt -0.019722 0.037639 0.000000
vt -0.012781 0.030111 0.000000
vt -0.019722 0.030111 0.000000
vt -0.012781 0.022583 0.000000
vt -0.019722 0.022583 0.000000
vt -0.012781 0.015056 0.000000
vt -0.019722 0.015056 0.000000
vt -0.012781 0.007528 0.000000
vt -0.019722 0.007528 0.000000
vt -0.012781 0.000000 0.000000
vt -0.019722 0.000000 0.000000
vt -0.012781 -0.007528 0.000000
vt -0.019722 -0.007528 0.000000
vt -0.012781 -0.015056 0.000000
vt -0.019722 -0.015056 0.000000
vt -0.012781 -0.022583 0.000000
vt -0.019722 -0.022583 0.000000
vt 0.009693 -0.007042 0.000000
vt 0.011981 0.000000 0.000000
vt 0.008134 0.000000 0.000000
vt 0.009693 0.007042 0.000000
vt 0.006231 0.005228 0.000000
vt 0.003702 0.011394 0.000000
vt 0.001412 0.008010 0.000000
vt -0.003702 0.011394 0.000000
vt -0.004067 0.007044 0.000000
vt -0.009693 0.007042 0.000000
vt -0.007643 0.002782 0.000000
vt -0.011981 0.000000 0.000000
vt -0.007643 -0.002782 0.000000
vt -0.009693 -0.007042 0.000000
vt -0.004067 -0.007044 0.000000
vt -0.003702 -0.011394 0.000000
vt 0.001412 -0.008010 0.000000
vt 0.003702 -0.011394 0.000000
vt 0.006231 -0.005228 0.000000
vt -0.063905 -0.030111 0.000000
vt -0.073491 -0.030111 0.000000
vt -0.063905 -0.037639 0.000000
vt -0.073491 -0.037639 0.000000
vt -0.063905 0.037639 0.000000
vt -0.073491 0.037639 0.000000
vt -0.063905 0.030111 0.000000
vt -0.073491 0.030111 0.000000
vt -0.063905 0.022583 0.000000
vt -0.073491 0.022583 0.000000
vt -0.063905 0.015056 0.000000
vt -0.073491 0.015056 0.000000
vt -0.063905 0.007528 0.000000
vt -0.073491 0.007528 0.000000
vt -0.063905 0.000000 0.000000
vt -0.073491 0.000000 0.000000
vt -0.063905 -0.007528 0.000000
vt -0.073491 -0.007528 0.000000
vt -0.063905 -0.015056 0.000000
vt -0.073491 -0.015056 0.000000
vt -0.063905 -0.022583 0.000000
vt -0.073491 -0.022583 0.000000
vt -0.005507 0.004621 0.000000
vt -0.009693 0.007042 0.000000
vt -0.007189 0.000000 0.000000
vt -0.011981 0.000000 0.000000
vt -0.009693 -0.007042 0.000000
vt -0.003702 0.011394 0.000000
vt -0.001248 0.007080 0.000000
vt 0.003702 0.011394 0.000000
vt 0.003595 0.006226 0.000000
vt 0.009693 0.007042 0.000000
vt 0.006756 0.002459 0.000000
vt 0.011981 0.000000 0.000000
vt 0.006756 -0.002459 0.000000
vt 0.009693 -0.007042 0.000000
vt 0.003595 -0.006226 0.000000
vt 0.003702 -0.011394 0.000000
vt -0.001248 -0.007080 0.000000
vt -0.003702 -0.011394 0.000000
vt -0.005507 -0.004621 0.000000
vt -0.178933 -0.019874 0.000000
vt -0.191714 -0.019874 0.000000
vt -0.178933 -0.025552 0.000000
vt -0.191714 -0.025552 0.000000
vt -0.178933 0.025552 0.000000
vt -0.191714 0.025552 0.000000
vt -0.178933 0.019874 0.000000
vt -0.191714 0.019874 0.000000
vt -0.178933 0.014196 0.000000
vt -0.191714 0.014196 0.000000
vt -0.178933 0.008517 0.000000
vt -0.191714 0.008517 0.000000
vt -0.178933 0.002839 0.000000
vt -0.191714 0.002839 0.000000
vt -0.178933 -0.002839 0.000000
vt -0.191714 -0.002839 0.000000
vt -0.178933 -0.008517 0.000000
vt -0.191714 -0.008517 0.000000
vt -0.178933 -0.014196 0.000000
vt -0.191714 -0.014196 0.000000
vt 0.062742 -0.075274 0.000000
vt 0.041827 -0.039236 0.000000
vt 0.052092 -0.071977 0.000000
vt 0.038990 -0.067169 0.000000
vt 0.025466 -0.063734 0.000000
vt 0.022839 0.000000 0.000000
vt 0.092017 0.000000 0.000000
vt 0.031974 0.006390 0.000000
vt 0.092017 0.006390 0.000000
vt 0.002871 0.049949 0.000000
vt 0.015976 0.000000 0.000000
vt 0.040524 0.049949 0.000000
vt 0.041538 0.000000 0.000000
vt 0.040524 0.106748 0.000000
vt 0.041538 0.156697 0.000000
vt 0.015976 0.156697 0.000000
vt -0.006390 0.019171 0.000000
vt 0.002871 0.106748 0.000000
vt -0.006390 0.137525 0.000000
vt -0.062742 -0.075274 0.000000
vt -0.052092 -0.071977 0.000000
vt -0.041827 -0.039236 0.000000
vt -0.038990 -0.067169 0.000000
vt -0.025466 -0.063734 0.000000
vt -0.077162 0.007817 0.000000
vt -0.043980 0.012419 0.000000
vt -0.087959 0.016558 0.000000
vt -0.043980 0.018628 0.000000
vt -0.043980 0.024838 0.000000
vt -0.000000 0.000000 0.000000
vt -0.000000 0.049675 0.000000
vt -0.043980 0.006209 0.000000
vt -0.066127 0.000000 0.000000
vt -0.002711 0.049675 0.000000
vt -0.045419 0.046364 0.000000
vt -0.043980 0.037256 0.000000
vt -0.043980 0.031047 0.000000
vt -0.087959 0.043052 0.000000
vt -0.000000 0.194387 0.000000
vt -0.000000 0.262864 0.000000
vt -0.027410 0.209540 0.000000
vt -0.027410 0.262864 0.000000
vt -0.000000 0.190508 0.000000
vt -0.000000 0.260160 0.000000
vt -0.007304 0.194387 0.000000
vt -0.007304 0.262864 0.000000
vt -0.000000 0.188849 0.000000
vt -0.000000 0.252809 0.000000
vt -0.008369 0.190508 0.000000
vt -0.008369 0.260160 0.000000
vt -0.027410 0.194387 0.000000
vt -0.000000 0.209540 0.000000
vt -0.027410 0.262864 0.000000
vt -0.000000 0.262864 0.000000
vt -0.008369 0.188849 0.000000
vt -0.000000 0.190508 0.000000
vt -0.008369 0.252809 0.000000
vt -0.000000 0.260160 0.000000
vt -0.007304 0.190508 0.000000
vt -0.000000 0.194387 0.000000
vt -0.007304 0.260160 0.000000
vt -0.000000 0.262864 0.000000
vt -0.015400 -0.036680 0.000000
vt 0.037924 -0.036680 0.000000
vt -0.008126 0.000000 0.000000
vt 0.042974 -0.018303 0.000000
vt 0.044579 0.000000 0.000000
vt 0.042974 0.018303 0.000000
vt 0.037924 0.036680 0.000000
vt -0.015400 0.036680 0.000000
vt 0.070681 0.003195 0.000000
vt 0.063960 0.015354 0.000000
vt 0.000000 0.003195 0.000000
vt 0.000000 0.015354 0.000000
vt -0.007874 -0.083300 0.000000
vt -0.003519 -0.037229 0.000000
vt -0.042038 -0.050964 0.000000
vt -0.034839 -0.037229 0.000000
vt -0.041235 -0.042470 0.000000
vt -0.060518 -0.060859 0.000000
vt -0.055931 -0.050964 0.000000
vt -0.059582 -0.050964 0.000000
vt -0.040886 0.000000 0.000000
vt -0.038671 -0.013276 0.000000
vt -0.038671 0.013276 0.000000
vt -0.032265 0.025113 0.000000
vt -0.032265 -0.025113 0.000000
vt -0.022363 0.034229 0.000000
vt -0.022363 -0.034229 0.000000
vt -0.010037 0.039635 0.000000
vt -0.010037 -0.039635 0.000000
vt 0.003376 0.040747 0.000000
vt 0.003376 -0.040747 0.000000
vt 0.016424 0.037443 0.000000
vt 0.027691 0.030081 0.000000
vt 0.035958 0.019460 0.000000
vt 0.040329 0.006730 0.000000
vt 0.040329 -0.006730 0.000000
vt 0.035958 -0.019460 0.000000
vt 0.027691 -0.030081 0.000000
vt 0.016424 -0.037443 0.000000
vt 0.069178 0.000000 0.000000
vt 0.060042 0.006390 0.000000
vt 0.000000 0.000000 0.000000
vt 0.000000 0.006390 0.000000
vt -0.000000 0.000000 0.000000
vt 0.114454 -0.000000 0.000000
vt 0.000000 0.006390 0.000000
vt 0.114454 0.006390 0.000000
vt -0.000000 0.000000 0.000000
vt 0.037394 -0.000000 0.000000
vt 0.000000 0.006390 0.000000
vt 0.083672 0.006390 0.000000
vt 0.083672 -0.000000 0.000000
vt 0.000000 0.000000 0.000000
vt 0.046277 0.000000 0.000000
vt 0.000000 0.006390 0.000000
vt 0.083672 0.006390 0.000000
vt 0.083672 0.000000 0.000000
vt 0.000000 0.000000 0.000000
vt 0.114454 0.000000 0.000000
vt 0.000000 0.006390 0.000000
vt 0.114454 0.006390 0.000000
vt 0.103256 0.059177 0.000000
vt 0.072584 0.087379 0.000000
vt 0.103256 -0.059177 0.000000
vt 0.014986 0.104337 0.000000
vt 0.072584 -0.087379 0.000000
vt 0.014986 -0.104337 0.000000
vt -0.113558 0.000000 0.000000
vt -0.097281 -0.082073 0.000000
vt -0.097281 0.082073 0.000000
vt -0.022367 0.114927 0.000000
vt -0.000000 0.114927 0.000000
vt -0.022367 0.128448 0.000000
vt -0.000000 0.128448 0.000000
vt -0.022367 -0.128448 0.000000
vt -0.000000 -0.128448 0.000000
vt -0.022367 -0.114927 0.000000
vt -0.000000 -0.114927 0.000000
vt -0.000000 -0.101406 0.000000
vt -0.022367 0.101406 0.000000
vt -0.000000 0.101406 0.000000
vt -0.022367 0.087885 0.000000
vt -0.000000 0.087885 0.000000
vt -0.022367 0.074365 0.000000
vt -0.000000 0.074365 0.000000
vt -0.022367 0.060844 0.000000
vt -0.000000 0.060844 0.000000
vt -0.022367 0.047323 0.000000
vt -0.000000 0.047323 0.000000
vt -0.022367 0.033802 0.000000
vt -0.000000 0.033802 0.000000
vt -0.022367 0.020281 0.000000
vt -0.000000 0.020281 0.000000
vt -0.022367 0.006760 0.000000
vt -0.000000 0.006760 0.000000
vt -0.022367 -0.006760 0.000000
vt -0.000000 -0.006760 0.000000
vt -0.022367 -0.020281 0.000000
vt -0.000000 -0.020281 0.000000
vt -0.022367 -0.033802 0.000000
vt -0.000000 -0.033802 0.000000
vt -0.022367 -0.047323 0.000000
vt -0.000000 -0.047323 0.000000
vt -0.022367 -0.060844 0.000000
vt -0.000000 -0.060844 0.000000
vt -0.022367 -0.074365 0.000000
vt -0.000000 -0.074365 0.000000
vt -0.022367 -0.087885 0.000000
vt -0.000000 -0.087885 0.000000
vt -0.022367 -0.101406 0.000000
vt -0.037653 0.056799 0.000000
vt -0.037653 0.000000 0.000000
vt -0.032261 0.005247 0.000000
vt -0.028240 0.000000 0.000000
vt -0.024860 0.005247 0.000000
vt -0.018827 0.000000 0.000000
vt -0.018827 0.005247 0.000000
vt -0.012793 0.005247 0.000000
vt -0.009413 0.000000 0.000000
vt -0.005392 0.005247 0.000000
vt 0.000000 0.000000 0.000000
vt 0.000000 0.056799 0.000000
vt -0.005392 0.051552 0.000000
vt -0.009413 0.056799 0.000000
vt -0.012793 0.051552 0.000000
vt -0.018827 0.056799 0.000000
vt -0.018827 0.051552 0.000000
vt -0.024860 0.051552 0.000000
vt -0.028240 0.056799 0.000000
vt -0.032261 0.051552 0.000000
vt -0.001725 0.018827 0.000000
vt -0.001725 -0.018827 0.000000
vt 0.000760 0.009413 0.000000
vt 0.000760 -0.009413 0.000000
vt 0.001651 0.000000 0.000000
vt -0.003195 0.001602 0.000000
vt 0.004206 0.003003 0.000000
vt -0.003195 0.041538 0.000000
vt 0.010239 0.003375 0.000000
vt 0.023674 0.041538 0.000000
vt 0.016273 0.003003 0.000000
vt 0.023674 0.001602 0.000000
vt 0.000000 0.001602 0.000000
vt 0.046305 0.001602 0.000000
vt 0.000000 0.041538 0.000000
vt 0.046305 0.041538 0.000000
vt -0.003195 0.001602 0.000000
vt 0.004206 0.003003 0.000000
vt -0.003195 0.041538 0.000000
vt 0.010239 0.003375 0.000000
vt 0.023674 0.041538 0.000000
vt 0.016273 0.003003 0.000000
vt 0.023674 0.001602 0.000000
vt 0.000000 0.001602 0.000000
vt 0.046305 0.001602 0.000000
vt 0.000000 0.041538 0.000000
vt 0.046305 0.041538 0.000000
vt 0.006680 0.009194 0.000000
vt 0.013435 0.023152 0.000000
vt 0.000000 0.011364 0.000000
vt -0.013435 0.023152 0.000000
vt -0.006680 0.009194 0.000000
vt -0.010808 0.003512 0.000000
vt -0.013435 -0.023152 0.000000
vt -0.010808 -0.003512 0.000000
vt -0.006680 -0.009194 0.000000
vt 0.000000 -0.011364 0.000000
vt 0.013435 -0.023152 0.000000
vt 0.006680 -0.009194 0.000000
vt 0.010808 -0.003512 0.000000
vt 0.010808 0.003512 0.000000
vt -0.004793 0.000000 0.000000
vt 0.032860 0.000000 0.000000
vt -0.004793 0.003195 0.000000
vt 0.032860 0.003195 0.000000
vt 0.004620 0.005680 0.000000
vt 0.023447 0.005680 0.000000
vt 0.014034 0.006571 0.000000
vt -0.000000 0.000000 0.000000
vt 0.056799 0.000000 0.000000
vt 0.000000 0.003195 0.000000
vt 0.056799 0.003195 0.000000
vt -0.004793 0.000000 0.000000
vt 0.032860 0.000000 0.000000
vt -0.004793 0.003195 0.000000
vt 0.032860 0.003195 0.000000
vt 0.000000 0.003195 0.000000
vt 0.000000 0.000000 0.000000
vt 0.056799 0.003195 0.000000
vt 0.056799 0.000000 0.000000
vt 0.041661 0.117523 0.000000
vt -0.000000 0.118361 0.000000
vt 0.041661 -0.039174 0.000000
vt 0.000000 -0.040012 0.000000
vt -0.041661 0.117523 0.000000
vt -0.041661 -0.039174 0.000000
vt -0.087959 0.000000 0.000000
vt -0.021832 0.000000 0.000000
vt -0.043980 0.006209 0.000000
vt -0.010797 0.007817 0.000000
vt -0.043980 0.012419 0.000000
vt -0.000000 0.016558 0.000000
vt -0.043980 0.018628 0.000000
vt -0.043980 0.024838 0.000000
vt -0.085248 0.049675 0.000000
vt -0.087959 0.049675 0.000000
vt -0.043980 0.031047 0.000000
vt -0.000000 0.043052 0.000000
vt -0.043980 0.037256 0.000000
vt -0.042540 0.046364 0.000000
vt 0.094573 0.050213 0.000000
vt 0.092022 0.013276 0.000000
vt 0.104531 0.000000 0.000000
vt 0.094237 0.000000 0.000000
vt 0.092022 -0.013276 0.000000
vt 0.092639 0.059963 0.000000
vt 0.075713 0.034229 0.000000
vt 0.085616 0.025113 0.000000
vt -0.000070 0.078348 0.000000
vt 0.049974 0.040747 0.000000
vt 0.063388 0.039635 0.000000
vt -0.002712 0.078348 0.000000
vt 0.017392 0.019460 0.000000
vt 0.025659 0.030081 0.000000
vt 0.036927 0.037443 0.000000
vt 0.013022 0.006730 0.000000
vt -0.002712 -0.078348 0.000000
vt 0.013022 -0.006730 0.000000
vt 0.017392 -0.019460 0.000000
vt -0.000070 -0.078348 0.000000
vt 0.025659 -0.030081 0.000000
vt 0.036927 -0.037443 0.000000
vt 0.049974 -0.040747 0.000000
vt 0.092639 -0.059963 0.000000
vt 0.063388 -0.039635 0.000000
vt 0.075713 -0.034229 0.000000
vt 0.094573 -0.050213 0.000000
vt 0.085616 -0.025113 0.000000
vt -0.000000 0.000000 0.000000
vt -0.018586 -0.051319 0.000000
vt 0.105673 -0.043964 0.000000
vt 0.068678 -0.087624 0.000000
vt -0.033361 -0.040830 0.000000
vt -0.026964 -0.046072 0.000000
vt -0.034164 -0.032336 0.000000
vt 0.004355 -0.046072 0.000000
vt -0.000000 0.000000 0.000000
vt -0.052643 -0.022441 0.000000
vt -0.048057 -0.032336 0.000000
vt -0.051708 -0.032336 0.000000
vt -0.105673 -0.043964 0.000000
vt -0.000000 0.000000 0.000000
vt -0.124260 0.007355 0.000000
vt -0.036996 0.043660 0.000000
vn -0.100000 0.000000 0.000000
vn -0.100000 0.000000 0.000000
vn -0.100000 0.000000 0.000000
vn -0.100000 0.000000 0.000000
vn -0.100000 0.000000 0.000000
vn -0.100000 0.000000 0.000000
vn -0.100000 0.000000 0.000000
vn -0.100000 0.000000 0.000000
vn -0.100000 0.000000 0.000000
vn 0.000000 -0.100000 0.000000
vn 0.000000 -0.100000 0.000000
vn 0.000000 -0.100000 0.000000
vn -0.000000 0.100000 -0.000000
vn -0.000000 0.100000 -0.000000
vn -0.000000 0.100000 -0.000000
vn 0.098090 0.019453 0.000000
vn 0.098090 0.019453 0.000000
vn 0.098090 0.019453 0.000000
vn 0.098090 0.019453 0.000000
vn 0.098090 -0.019453 0.000000
vn 0.098090 -0.019453 0.000000
vn 0.098090 -0.019453 0.000000
vn 0.098090 -0.019453 0.000000
vn 0.000000 0.000000 0.100000
vn 0.000000 0.000000 0.100000
vn 0.000000 0.000000 0.100000
vn 0.000000 0.000000 0.100000
vn 0.000000 0.000000 0.100000
vn 0.000000 0.000000 0.100000
vn 0.000000 0.000000 0.100000
vn 0.000000 0.000000 0.100000
vn 0.000000 0.000000 0.100000
vn 0.000000 0.000000 0.100000
vn 0.000000 0.000000 0.100000
vn 0.000000 0.000000 0.100000
vn 0.000000 0.000000 0.100000
vn 0.000000 0.000000 0.100000
vn 0.000000 0.000000 0.100000
vn 0.000000 0.000000 0.100000
vn 0.000000 0.000000 0.100000
vn 0.000000 0.000000 0.100000
vn 0.000000 0.100000 0.000000
vn 0.000000 0.100000 0.000000
vn 0.000000 0.100000 0.000000
vn 0.000000 0.100000 0.000000
vn 0.062402 0.078141 0.000000
vn 0.077048 0.063746 0.000000
vn 0.062402 0.078141 0.000000
vn 0.084971 0.052725 0.000000
vn 0.085901 0.051196 0.000000
vn 0.091503 0.040339 0.000000
vn 0.091383 0.040611 0.000000
vn 0.095283 0.030349 0.000000
vn 0.098989 0.014183 0.000000
vn 0.098717 0.015965 0.000000
vn 0.091503 0.040339 0.000000
vn 0.099988 0.001519 0.000000
vn 0.099988 0.001519 0.000000
vn 0.099988 -0.001519 0.000000
vn 0.098849 -0.015130 0.000000
vn 0.099988 -0.001519 0.000000
vn 0.098717 -0.015965 0.000000
vn 0.097331 -0.022949 0.000000
vn 0.091503 -0.040339 0.000000
vn 0.094637 -0.032310 0.000000
vn 0.091503 -0.040339 0.000000
vn 0.085052 -0.052594 0.000000
vn 0.084971 -0.052725 0.000000
vn 0.076306 -0.064633 0.000000
vn 0.062402 -0.078141 0.000000
vn 0.062402 -0.078141 0.000000
vn 0.073422 0.054925 0.039906
vn 0.040068 0.084648 0.035062
vn 0.073422 0.067891 0.000000
vn 0.040068 0.091622 0.000000
vn 0.040068 0.084648 -0.035062
vn 0.000000 0.093969 -0.034202
vn 0.040068 0.064786 -0.064786
vn 0.000000 0.050000 -0.086603
vn 0.040068 0.035062 -0.084648
vn 0.040068 0.000000 -0.091622
vn 0.073422 0.020980 -0.064569
vn 0.073422 -0.020980 -0.064569
vn 0.040068 -0.035062 -0.084648
vn 0.040068 -0.064786 -0.064786
vn 0.000000 -0.076604 -0.064279
vn 0.040068 -0.084648 -0.035062
vn 0.000000 -0.100000 -0.000000
vn 0.040068 -0.091622 -0.000000
vn 0.040068 -0.084648 0.035062
vn 0.073422 -0.067891 0.000000
vn 0.073422 -0.054925 0.039906
vn 0.040068 -0.064786 0.064786
vn 0.073422 -0.020980 0.064569
vn 0.040068 -0.035062 0.084648
vn 0.040068 0.000000 0.091622
vn 0.000000 -0.017365 0.098481
vn 0.000000 0.050000 0.086603
vn 0.040068 0.064786 0.064786
vn 0.073422 0.020980 0.064569
vn 0.040068 0.035062 0.084648
vn 0.073422 -0.054925 -0.039906
vn 0.073422 0.054925 -0.039906
vn 0.000000 -0.076604 0.064279
vn 0.000000 0.093969 0.034202
vn 0.000000 -0.017365 -0.098481
vn -0.000000 0.076604 -0.064279
vn -0.000000 0.076604 -0.064279
vn -0.000000 0.100000 -0.000000
vn -0.000000 0.100000 -0.000000
vn 0.000000 0.076604 0.064279
vn 0.000000 0.076604 0.064279
vn 0.000000 0.017365 0.098481
vn 0.000000 0.017365 0.098481
vn 0.000000 -0.050000 0.086603
vn 0.000000 -0.050000 0.086603
vn 0.000000 -0.093969 0.034202
vn 0.000000 -0.093969 0.034202
vn 0.000000 -0.093969 -0.034202
vn 0.000000 -0.093969 -0.034202
vn 0.000000 -0.050000 -0.086603
vn 0.000000 -0.050000 -0.086603
vn -0.000000 0.017365 -0.098481
vn -0.000000 0.017365 -0.098481
vn -0.094537 0.024973 0.020955
vn -0.058052 0.065874 0.047860
vn -0.094537 0.032600 0.000000
vn -0.058052 0.081425 0.000000
vn -0.058052 0.065874 -0.047860
vn 0.000000 0.100000 0.000000
vn 0.000000 0.080902 -0.058779
vn -0.058052 0.025162 0.077440
vn -0.094537 0.005661 0.032105
vn -0.058052 -0.025162 0.077440
vn -0.094537 -0.016300 0.028233
vn -0.058052 -0.065874 0.047860
vn -0.094537 -0.030634 0.011150
vn -0.058052 -0.081425 0.000000
vn -0.094537 -0.030634 -0.011150
vn -0.058052 -0.065874 -0.047860
vn -0.094537 -0.016300 -0.028233
vn -0.058052 -0.025162 -0.077440
vn -0.094537 0.005661 -0.032105
vn -0.058052 0.025162 -0.077440
vn -0.094537 0.024973 -0.020955
vn 0.000000 -0.080902 0.058779
vn 0.000000 -0.100000 0.000000
vn 0.000000 -0.080902 -0.058779
vn 0.000000 -0.030902 -0.095106
vn 0.000000 0.030902 -0.095106
vn 0.000000 -0.030902 0.095106
vn 0.000000 0.030902 0.095106
vn 0.000000 0.080902 0.058779
vn -0.000000 0.080902 -0.058779
vn -0.000000 0.100000 -0.000000
vn 0.000000 0.080902 0.058779
vn 0.000000 0.030902 0.095106
vn 0.000000 -0.030902 0.095106
vn 0.000000 -0.080902 0.058779
vn 0.000000 -0.100000 0.000000
vn 0.000000 -0.080902 -0.058779
vn 0.000000 -0.030902 -0.095106
vn -0.000000 0.030902 -0.095106
vn 0.000000 -0.076604 -0.064279
vn 0.000000 -0.076604 -0.064279
vn 0.000000 -0.100000 -0.000000
vn 0.000000 -0.100000 -0.000000
vn 0.000000 -0.076604 0.064279
vn 0.000000 -0.076604 0.064279
vn 0.000000 -0.017365 0.098481
vn 0.000000 -0.017365 0.098481
vn 0.000000 0.050000 0.086603
vn 0.000000 0.050000 0.086603
vn 0.000000 0.093969 0.034202
vn 0.000000 0.093969 0.034202
vn 0.000000 0.093969 -0.034202
vn 0.000000 0.093969 -0.034202
vn 0.000000 0.050000 -0.086603
vn 0.000000 0.050000 -0.086603
vn 0.000000 -0.017365 -0.098481
vn 0.000000 -0.017365 -0.098481
vn -0.100000 0.000000 0.000000
vn -0.100000 0.000000 0.000000
vn -0.100000 0.000000 0.000000
vn -0.100000 0.000000 0.000000
vn -0.100000 0.000000 0.000000
vn -0.100000 0.000000 0.000000
vn -0.100000 0.000000 0.000000
vn -0.100000 0.000000 0.000000
vn -0.100000 0.000000 0.000000
vn -0.100000 0.000000 0.000000
vn -0.100000 0.000000 0.000000
vn -0.100000 0.000000 0.000000
vn -0.100000 0.000000 0.000000
vn -0.100000 0.000000 0.000000
vn -0.100000 0.000000 0.000000
vn -0.100000 0.000000 0.000000
vn -0.100000 0.000000 0.000000
vn -0.100000 0.000000 0.000000
vn -0.100000 0.000000 0.000000
vn 0.000000 0.080902 0.058779
vn 0.000000 0.080902 0.058779
vn 0.000000 0.100000 0.000000
vn 0.000000 0.100000 0.000000
vn -0.000000 0.080902 -0.058779
vn -0.000000 0.080902 -0.058779
vn -0.000000 0.030902 -0.095106
vn -0.000000 0.030902 -0.095106
vn 0.000000 -0.030902 -0.095106
vn 0.000000 -0.030902 -0.095106
vn 0.000000 -0.080902 -0.058779
vn 0.000000 -0.080902 -0.058779
vn 0.000000 -0.100000 0.000000
vn 0.000000 -0.100000 0.000000
vn 0.000000 -0.080902 0.058779
vn 0.000000 -0.080902 0.058779
vn 0.000000 -0.030902 0.095106
vn 0.000000 -0.030902 0.095106
vn 0.000000 0.030902 0.095106
vn 0.000000 0.030902 0.095106
vn 0.100000 0.000000 0.000000
vn 0.100000 0.000000 0.000000
vn 0.100000 0.000000 0.000000
vn 0.100000 0.000000 0.000000
vn 0.100000 0.000000 0.000000
vn 0.100000 0.000000 0.000000
vn 0.100000 0.000000 0.000000
vn 0.100000 0.000000 0.000000
vn 0.100000 0.000000 0.000000
vn 0.100000 0.000000 0.000000
vn 0.100000 0.000000 0.000000
vn 0.100000 0.000000 0.000000
vn 0.100000 0.000000 0.000000
vn 0.100000 0.000000 0.000000
vn 0.100000 0.000000 0.000000
vn 0.100000 0.000000 0.000000
vn 0.100000 0.000000 0.000000
vn 0.100000 0.000000 0.000000
vn 0.100000 0.000000 0.000000
vn -0.000000 0.080902 -0.058779
vn -0.000000 0.080902 -0.058779
vn -0.000000 0.100000 -0.000000
vn -0.000000 0.100000 -0.000000
vn 0.000000 0.080902 0.058779
vn 0.000000 0.080902 0.058779
vn 0.000000 0.030902 0.095106
vn 0.000000 0.030902 0.095106
vn 0.000000 -0.030902 0.095106
vn 0.000000 -0.030902 0.095106
vn 0.000000 -0.080902 0.058779
vn 0.000000 -0.080902 0.058779
vn 0.000000 -0.100000 0.000000
vn 0.000000 -0.100000 0.000000
vn 0.000000 -0.080902 -0.058779
vn 0.000000 -0.080902 -0.058779
vn 0.000000 -0.030902 -0.095106
vn 0.000000 -0.030902 -0.095106
vn -0.000000 0.030902 -0.095106
vn -0.000000 0.030902 -0.095106
vn -0.100000 0.000000 0.000000
vn -0.100000 0.000000 0.000000
vn -0.100000 0.000000 0.000000
vn -0.100000 0.000000 0.000000
vn -0.100000 0.000000 0.000000
vn -0.100000 0.000000 0.000000
vn -0.100000 0.000000 0.000000
vn -0.100000 0.000000 0.000000
vn -0.100000 0.000000 0.000000
vn -0.100000 0.000000 0.000000
vn -0.100000 0.000000 0.000000
vn -0.100000 0.000000 0.000000
vn -0.100000 0.000000 0.000000
vn -0.100000 0.000000 0.000000
vn -0.100000 0.000000 0.000000
vn -0.100000 0.000000 0.000000
vn -0.100000 0.000000 0.000000
vn -0.100000 0.000000 0.000000
vn -0.100000 0.000000 0.000000
vn -0.000000 0.076604 -0.064279
vn -0.000000 0.076604 -0.064279
vn -0.000000 0.100000 -0.000000
vn -0.000000 0.100000 -0.000000
vn 0.000000 0.076604 0.064279
vn 0.000000 0.076604 0.064279
vn 0.000000 0.017365 0.098481
vn 0.000000 0.017365 0.098481
vn 0.000000 -0.050000 0.086603
vn 0.000000 -0.050000 0.086603
vn 0.000000 -0.093969 0.034202
vn 0.000000 -0.093969 0.034202
vn 0.000000 -0.093969 -0.034202
vn 0.000000 -0.093969 -0.034202
vn 0.000000 -0.050000 -0.086603
vn 0.000000 -0.050000 -0.086603
vn -0.000000 0.017365 -0.098481
vn -0.000000 0.017365 -0.098481
vn -0.057242 0.062256 -0.053362
vn -0.057242 0.062256 -0.053362
vn -0.057242 0.062256 -0.053362
vn -0.057242 0.062256 -0.053362
vn -0.057242 0.062256 -0.053362
vn -0.028244 0.095929 0.000000
vn -0.028244 0.095929 0.000000
vn -0.028244 0.095929 0.000000
vn -0.028244 0.095929 0.000000
vn -0.100000 0.000000 0.000000
vn -0.100000 0.000000 0.000000
vn -0.100000 0.000000 0.000000
vn -0.100000 0.000000 0.000000
vn -0.100000 0.000000 0.000000
vn -0.100000 0.000000 0.000000
vn -0.100000 0.000000 0.000000
vn -0.100000 0.000000 0.000000
vn -0.100000 0.000000 0.000000
vn -0.100000 0.000000 0.000000
vn -0.057242 -0.062256 -0.053362
vn -0.057242 -0.062256 -0.053362
vn -0.057242 -0.062256 -0.053362
vn -0.057242 -0.062256 -0.053362
vn -0.057242 -0.062256 -0.053362
vn -0.024135 -0.096840 0.006288
vn -0.021019 -0.094499 0.025061
vn -0.019441 -0.098092 0.000000
vn -0.017694 -0.095111 0.025315
vn -0.014283 -0.095621 0.025545
vn -0.025210 -0.085625 0.045087
vn 0.000000 -0.087908 0.047667
vn -0.024251 -0.093796 0.024784
vn -0.028024 -0.095183 0.012440
vn 0.000000 -0.088520 0.046520
vn -0.001951 -0.096723 0.025315
vn -0.007246 -0.096310 0.025919
vn -0.010797 -0.096024 0.025747
vn -0.004023 -0.099919 0.000000
vn -0.000000 0.100000 -0.000000
vn -0.000000 0.100000 -0.000000
vn -0.000000 0.100000 -0.000000
vn -0.000000 0.100000 -0.000000
vn -0.000000 0.070711 -0.070711
vn -0.000000 0.070711 -0.070711
vn -0.000000 0.070711 -0.070711
vn -0.000000 0.070711 -0.070711
vn 0.000000 0.000000 -0.100000
vn 0.000000 0.000000 -0.100000
vn 0.000000 0.000000 -0.100000
vn 0.000000 0.000000 -0.100000
vn 0.000000 -0.100000 0.000000
vn 0.000000 -0.100000 0.000000
vn 0.000000 -0.100000 0.000000
vn 0.000000 -0.100000 0.000000
vn 0.000000 0.000000 -0.100000
vn 0.000000 0.000000 -0.100000
vn 0.000000 0.000000 -0.100000
vn 0.000000 0.000000 -0.100000
vn 0.000000 -0.070711 -0.070711
vn 0.000000 -0.070711 -0.070711
vn 0.000000 -0.070711 -0.070711
vn 0.000000 -0.070711 -0.070711
vn 0.000000 0.000000 -0.100000
vn 0.000000 0.000000 -0.100000
vn 0.000000 0.000000 -0.100000
vn 0.000000 0.000000 -0.100000
vn 0.000000 0.000000 -0.100000
vn 0.000000 0.000000 -0.100000
vn 0.000000 0.000000 -0.100000
vn 0.000000 0.000000 -0.100000
vn 0.000000 -0.100000 0.000000
vn 0.000000 -0.100000 0.000000
vn 0.000000 -0.100000 0.000000
vn 0.000000 -0.100000 0.000000
vn 0.086229 -0.017100 0.047667
vn 0.086229 -0.017100 0.047667
vn 0.086229 -0.017100 0.047667
vn 0.086229 -0.017100 0.047667
vn 0.086229 -0.017100 0.047667
vn 0.086229 -0.017100 0.047667
vn 0.086229 -0.017100 0.047667
vn 0.086229 -0.017100 0.047667
vn 0.000000 0.000000 0.100000
vn 0.000000 0.000000 0.100000
vn 0.000000 0.000000 0.100000
vn 0.000000 0.000000 0.100000
vn 0.000000 0.000000 0.100000
vn 0.000000 0.000000 0.100000
vn 0.000000 0.000000 0.100000
vn 0.000000 0.000000 0.100000
vn 0.000000 0.000000 0.100000
vn 0.000000 0.000000 0.100000
vn 0.000000 0.000000 0.100000
vn 0.000000 0.000000 0.100000
vn 0.000000 0.000000 0.100000
vn 0.000000 0.000000 0.100000
vn 0.000000 0.000000 0.100000
vn 0.000000 0.000000 0.100000
vn 0.000000 0.000000 0.100000
vn 0.000000 0.000000 0.100000
vn 0.000000 0.000000 0.100000
vn -0.028244 -0.095929 0.000000
vn -0.028244 -0.095929 0.000000
vn -0.028244 -0.095929 0.000000
vn -0.028244 -0.095929 0.000000
vn 0.019453 -0.098090 0.000000
vn 0.019453 -0.098090 0.000000
vn 0.019453 -0.098090 0.000000
vn 0.019453 -0.098090 0.000000
vn 0.098090 -0.019453 0.000000
vn 0.098090 -0.019453 0.000000
vn 0.098090 -0.019453 0.000000
vn 0.098090 -0.019453 0.000000
vn 0.098090 -0.019453 0.000000
vn 0.098090 0.019453 0.000000
vn 0.098090 0.019453 0.000000
vn 0.098090 0.019453 0.000000
vn 0.098090 0.019453 0.000000
vn 0.098090 0.019453 0.000000
vn 0.019453 0.098090 0.000000
vn 0.019453 0.098090 0.000000
vn 0.019453 0.098090 0.000000
vn 0.019453 0.098090 0.000000
vn 0.000000 0.000000 -0.100000
vn 0.000000 0.000000 -0.100000
vn 0.000000 0.000000 -0.100000
vn 0.000000 0.000000 -0.100000
vn 0.000000 0.000000 -0.100000
vn 0.000000 0.000000 -0.100000
vn 0.000000 0.000000 -0.100000
vn 0.000000 0.000000 -0.100000
vn 0.000000 0.000000 -0.100000
vn 0.094582 -0.032470 0.000000
vn 0.094582 -0.032470 0.000000
vn 0.100000 -0.000000 0.000000
vn 0.100000 -0.000000 0.000000
vn 0.094582 0.032470 0.000000
vn 0.094582 0.032470 0.000000
vn 0.078914 0.061421 0.000000
vn 0.078914 -0.061421 0.000000
vn 0.078914 -0.061421 0.000000
vn 0.054695 -0.083717 0.000000
vn 0.054695 -0.083717 0.000000
vn 0.024549 -0.096940 0.000000
vn 0.024549 -0.096940 0.000000
vn -0.008258 -0.099658 0.000000
vn -0.008258 -0.099658 0.000000
vn -0.040170 -0.091577 0.000000
vn -0.040170 -0.091577 0.000000
vn -0.067728 -0.073572 0.000000
vn -0.067728 -0.073572 0.000000
vn -0.087947 -0.047595 0.000000
vn -0.087947 -0.047595 0.000000
vn -0.098636 -0.016459 0.000000
vn -0.098636 -0.016459 0.000000
vn -0.098636 0.016459 -0.000000
vn -0.098636 0.016459 -0.000000
vn -0.087947 0.047595 -0.000000
vn -0.087947 0.047595 -0.000000
vn -0.067728 0.073572 -0.000000
vn -0.067728 0.073572 -0.000000
vn -0.040170 0.091577 -0.000000
vn -0.040170 0.091577 -0.000000
vn -0.008258 0.099658 -0.000000
vn -0.008258 0.099658 -0.000000
vn 0.024549 0.096940 0.000000
vn 0.024549 0.096940 0.000000
vn 0.054695 0.083717 0.000000
vn 0.054695 0.083717 0.000000
vn 0.078914 0.061421 0.000000
vn -0.094679 0.000000 -0.032187
vn -0.094679 0.000000 -0.032187
vn -0.096933 0.000000 -0.024577
vn -0.098340 0.000000 -0.018144
vn -0.099267 0.000000 -0.012086
vn -0.100000 0.000000 0.000000
vn -0.100000 0.000000 -0.000000
vn -0.099267 0.000000 0.012086
vn -0.098340 0.000000 0.018144
vn -0.096933 0.000000 0.024577
vn -0.094679 0.000000 0.032187
vn -0.094679 0.000000 0.032187
vn -0.096933 0.000000 0.024577
vn -0.098340 0.000000 0.018144
vn -0.099267 0.000000 0.012086
vn -0.100000 0.000000 0.000000
vn -0.100000 0.000000 -0.000000
vn -0.099267 0.000000 -0.012086
vn -0.098340 0.000000 -0.018144
vn -0.096933 0.000000 -0.024577
vn -0.000000 0.100000 -0.000000
vn -0.000000 0.100000 -0.000000
vn -0.000000 0.100000 -0.000000
vn -0.000000 0.100000 -0.000000
vn -0.000000 0.100000 -0.000000
vn 0.000000 0.100000 0.000000
vn 0.000000 0.100000 0.000000
vn 0.000000 0.100000 0.000000
vn 0.000000 0.100000 0.000000
vn 0.000000 0.100000 0.000000
vn 0.000000 0.100000 0.000000
vn 0.000000 0.100000 0.000000
vn 0.000000 0.000000 -0.100000
vn 0.000000 0.000000 -0.100000
vn 0.000000 0.000000 -0.100000
vn 0.000000 0.000000 -0.100000
vn 0.000000 -0.100000 0.000000
vn 0.000000 -0.100000 0.000000
vn 0.000000 -0.100000 0.000000
vn 0.000000 -0.100000 0.000000
vn 0.000000 -0.100000 0.000000
vn 0.000000 -0.100000 0.000000
vn 0.000000 -0.100000 0.000000
vn 0.000000 0.000000 0.100000
vn 0.000000 0.000000 0.100000
vn 0.000000 0.000000 0.100000
vn 0.000000 0.000000 0.100000
vn -0.100000 0.000000 0.000000
vn -0.100000 0.000000 0.000000
vn -0.100000 0.000000 0.000000
vn -0.100000 0.000000 0.000000
vn -0.100000 0.000000 0.000000
vn -0.100000 0.000000 0.000000
vn -0.100000 0.000000 0.000000
vn -0.100000 0.000000 0.000000
vn -0.100000 0.000000 0.000000
vn -0.100000 0.000000 0.000000
vn -0.100000 0.000000 0.000000
vn -0.100000 0.000000 0.000000
vn -0.100000 0.000000 0.000000
vn -0.100000 0.000000 0.000000
vn 0.000000 -0.100000 0.000000
vn 0.000000 -0.100000 0.000000
vn 0.000000 -0.100000 0.000000
vn 0.000000 -0.100000 0.000000
vn 0.000000 -0.100000 0.000000
vn 0.000000 -0.100000 0.000000
vn 0.000000 -0.100000 0.000000
vn 0.000000 0.000000 -0.100000
vn 0.000000 0.000000 -0.100000
vn 0.000000 0.000000 -0.100000
vn 0.000000 0.000000 -0.100000
vn 0.000000 0.100000 0.000000
vn 0.000000 0.100000 0.000000
vn 0.000000 0.000000 0.100000
vn 0.000000 0.000000 0.100000
vn 0.000000 0.000000 0.100000
vn 0.000000 0.000000 0.100000
vn -0.007670 0.000000 0.099705
vn -0.007670 0.000000 0.099705
vn -0.007670 0.000000 0.099705
vn -0.007670 0.000000 0.099705
vn -0.007670 0.000000 0.099705
vn -0.007670 0.000000 0.099705
vn -0.025210 0.085625 0.045087
vn -0.028024 0.095183 0.012440
vn -0.024251 0.093796 0.024784
vn -0.024135 0.096840 0.006288
vn -0.021019 0.094499 0.025061
vn -0.019441 0.098092 -0.000000
vn -0.017694 0.095111 0.025315
vn -0.014283 0.095621 0.025545
vn 0.000000 0.088520 0.046520
vn 0.000000 0.087908 0.047667
vn -0.010797 0.096024 0.025747
vn -0.004023 0.099919 -0.000000
vn -0.007246 0.096310 0.025919
vn -0.001951 0.096723 0.025315
vn 0.000000 0.000000 0.100000
vn 0.000000 0.000000 0.100000
vn 0.000000 0.000000 0.100000
vn 0.000000 0.000000 0.100000
vn 0.000000 0.000000 0.100000
vn 0.000000 0.000000 0.100000
vn 0.000000 0.000000 0.100000
vn 0.000000 0.000000 0.100000
vn 0.000000 0.000000 0.100000
vn 0.000000 0.000000 0.100000
vn 0.000000 0.000000 0.100000
vn 0.000000 0.000000 0.100000
vn 0.000000 0.000000 0.100000
vn 0.000000 0.000000 0.100000
vn 0.000000 0.000000 0.100000
vn 0.000000 0.000000 0.100000
vn 0.000000 0.000000 0.100000
vn 0.000000 0.000000 0.100000
vn 0.000000 0.000000 0.100000
vn 0.000000 0.000000 0.100000
vn 0.000000 0.000000 0.100000
vn 0.000000 0.000000 0.100000
vn 0.000000 0.000000 0.100000
vn 0.000000 0.000000 0.100000
vn 0.000000 0.000000 0.100000
vn 0.000000 0.000000 0.100000
vn 0.000000 0.000000 0.100000
vn 0.000000 0.000000 0.100000
vn 0.017100 0.086229 0.047667
vn 0.017100 0.086229 0.047667
vn 0.017100 0.086229 0.047667
vn 0.017100 0.086229 0.047667
vn 0.086229 0.017100 0.047667
vn 0.086229 0.017100 0.047667
vn 0.086229 0.017100 0.047667
vn 0.086229 0.017100 0.047667
vn 0.086229 0.017100 0.047667
vn 0.086229 0.017100 0.047667
vn 0.086229 0.017100 0.047667
vn 0.086229 0.017100 0.047667
vn 0.017100 -0.086229 0.047667
vn 0.017100 -0.086229 0.047667
vn 0.017100 -0.086229 0.047667
vn 0.017100 -0.086229 0.047667
usemtl Steel_-_Satin
f 1/1/1 2/2/2 9/3/3
f 9/3/3 2/2/2 3/4/4
f 9/3/3 3/4/4 8/5/5
f 8/5/5 3/4/4 4/6/6
f 8/5/5 4/6/6 7/7/7
f 7/7/7 4/6/6 5/8/8
f 7/7/7 5/8/8 6/9/9
f 10/10/10 11/11/11 12/12/12
f 13/13/13 14/14/14 15/15/15
f 11/16/16 16/17/17 12/18/18
f 12/18/18 16/17/17 17/19/19
f 16/20/20 13/21/21 17/22/22
f 17/22/22 13/21/21 15/23/23
f 14/24/24 18/25/25 17/26/26
f 17/26/26 18/25/25 19/27/27
f 17/26/26 19/27/27 20/28/28
f 20/28/28 21/29/29 17/26/26
f 17/26/26 21/29/29 22/30/30
f 17/26/26 22/30/30 23/31/31
f 23/31/31 24/32/32 17/26/26
f 17/26/26 24/32/32 25/33/33
f 17/26/26 25/33/33 26/34/34
f 26/34/34 27/35/35 17/26/26
f 17/26/26 27/35/35 28/36/36
f 17/26/26 28/36/36 29/37/37
f 29/37/37 30/38/38 17/26/26
f 17/26/26 30/38/38 10/39/39
f 17/26/26 10/39/39 12/40/40
f 17/26/26 15/41/41 14/24/24
f 10/42/42 30/43/43 32/44/44
f 32/44/44 30/43/43 31/45/45
f 30/46/46 29/47/47 31/48/48
f 31/48/48 29/47/47 37/49/49
f 37/49/49 29/47/47 28/50/50
f 37/49/49 28/50/50 36/51/51
f 36/51/51 28/50/50 27/52/52
f 36/51/51 27/52/52 26/53/53
f 25/54/54 34/55/55 26/53/53
f 26/53/53 34/55/55 35/56/56
f 26/53/53 35/56/56 36/51/51
f 24/57/57 33/58/58 25/54/54
f 25/54/54 33/58/58 34/55/55
f 24/59/59 23/60/60 33/61/61
f 33/61/61 23/60/60 42/62/62
f 42/62/62 23/60/60 22/63/63
f 42/62/62 22/63/63 41/64/64
f 41/64/64 22/63/63 21/65/65
f 41/64/64 21/65/65 40/66/66
f 40/66/66 21/65/65 20/67/67
f 40/66/66 20/67/67 39/68/68
f 39/68/68 20/67/67 19/69/69
f 39/68/68 19/69/69 38/70/70
f 38/70/70 19/69/69 18/71/71
f 44/72/72 72/73/73 43/74/74
f 43/74/74 72/73/73 71/75/75
f 43/74/74 71/75/75 77/76/76
f 77/76/76 71/75/75 58/77/77
f 77/76/76 58/77/77 67/78/78
f 67/78/78 58/77/77 59/79/79
f 67/78/78 59/79/79 76/80/80
f 76/80/80 59/79/79 68/81/81
f 76/80/80 68/81/81 51/82/82
f 51/82/82 68/81/81 50/83/83
f 50/83/83 68/81/81 70/84/84
f 50/83/83 70/84/84 69/85/85
f 69/85/85 70/84/84 61/86/86
f 69/85/85 61/86/86 75/87/87
f 75/87/87 61/86/86 53/88/88
f 75/87/87 53/88/88 62/89/89
f 62/90/89 53/91/88 74/92/90
f 62/90/89 74/92/90 48/93/91
f 48/93/91 74/92/90 47/94/92
f 47/94/92 74/92/90 63/95/93
f 47/94/92 63/95/93 46/96/94
f 46/96/94 63/95/93 64/97/95
f 46/96/94 64/97/95 66/98/96
f 66/98/96 64/97/95 55/99/97
f 66/98/96 55/99/97 56/100/98
f 72/73/73 44/72/72 65/101/99
f 65/101/99 44/72/72 45/102/100
f 65/101/99 45/102/100 73/103/101
f 73/103/101 45/102/100 66/98/96
f 73/103/101 66/98/96 56/100/98
f 45/102/100 46/96/94 66/98/96
f 62/89/89 48/104/91 75/87/87
f 75/87/87 48/104/91 49/105/102
f 75/87/87 49/105/102 69/85/85
f 69/85/85 49/105/102 50/83/83
f 76/80/80 51/82/82 67/78/78
f 67/78/78 51/82/82 52/106/103
f 67/78/78 52/106/103 77/76/76
f 77/76/76 52/106/103 43/74/74
f 53/91/88 54/107/104 74/92/90
f 74/92/90 54/107/104 63/95/93
f 63/95/93 54/107/104 64/97/95
f 64/97/95 54/107/104 55/99/97
f 73/103/101 56/100/98 65/101/99
f 65/101/99 56/100/98 57/108/105
f 65/101/99 57/108/105 72/73/73
f 72/73/73 57/108/105 71/75/75
f 57/108/105 58/77/77 71/75/75
f 59/79/79 60/109/106 68/81/81
f 68/81/81 60/109/106 70/84/84
f 60/109/106 61/86/86 70/84/84
f 79/110/107 88/111/108 78/112/109
f 78/112/109 88/111/108 87/113/110
f 78/114/109 87/115/110 86/116/111
f 86/116/111 87/115/110 95/117/112
f 86/116/111 95/117/112 85/118/113
f 85/118/113 95/117/112 94/119/114
f 85/118/113 94/119/114 84/120/115
f 84/120/115 94/119/114 93/121/116
f 84/120/115 93/121/116 83/122/117
f 83/122/117 93/121/116 92/123/118
f 83/122/117 92/123/118 82/124/119
f 82/124/119 92/123/118 91/125/120
f 82/124/119 91/125/120 81/126/121
f 81/126/121 91/125/120 90/127/122
f 81/126/121 90/127/122 80/128/123
f 80/128/123 90/127/122 89/129/124
f 80/128/123 89/129/124 79/110/107
f 79/110/107 89/129/124 88/111/108
f 61/130/86 91/125/120 53/131/88
f 53/131/88 91/125/120 92/123/118
f 53/131/88 92/123/118 54/132/104
f 54/132/104 92/123/118 93/121/116
f 54/132/104 93/121/116 55/133/97
f 55/133/97 93/121/116 94/119/114
f 55/133/97 94/119/114 56/134/98
f 56/134/98 94/119/114 95/117/112
f 56/134/98 95/117/112 57/135/105
f 57/135/105 95/117/112 87/115/110
f 57/135/105 87/115/110 58/136/77
f 58/137/77 87/113/110 88/111/108
f 58/137/77 88/111/108 59/138/79
f 59/138/79 88/111/108 89/129/124
f 59/138/79 89/129/124 60/139/106
f 60/139/106 89/129/124 90/127/122
f 60/139/106 90/127/122 61/130/86
f 61/130/86 90/127/122 91/125/120
f 86/140/125 107/141/126 78/142/127
f 78/142/127 107/141/126 108/143/128
f 78/142/127 108/143/128 115/144/129
f 115/144/129 108/143/128 101/145/130
f 115/144/129 101/145/130 102/146/131
f 107/141/126 86/140/125 109/147/132
f 109/147/132 86/140/125 85/148/133
f 109/147/132 85/148/133 110/149/134
f 110/149/134 85/148/133 84/150/135
f 110/149/134 84/150/135 111/151/136
f 111/151/136 84/150/135 83/152/137
f 111/151/136 83/152/137 106/153/138
f 106/154/138 83/155/137 82/156/139
f 106/154/138 82/156/139 112/157/140
f 112/157/140 82/156/139 81/158/141
f 112/157/140 81/158/141 113/159/142
f 113/159/142 81/158/141 80/160/143
f 113/159/142 80/160/143 114/161/144
f 114/161/144 80/160/143 79/162/145
f 114/161/144 79/162/145 115/144/129
f 115/144/129 79/162/145 78/142/127
f 97/163/146 111/151/136 96/164/147
f 96/164/147 111/151/136 106/153/138
f 96/165/147 106/154/138 105/166/148
f 105/166/148 106/154/138 112/157/140
f 105/166/148 112/157/140 104/167/149
f 104/167/149 112/157/140 113/159/142
f 104/167/149 113/159/142 103/168/150
f 103/168/150 113/159/142 114/161/144
f 103/168/150 114/161/144 102/146/131
f 102/146/131 114/161/144 115/144/129
f 111/151/136 97/163/146 110/149/134
f 110/149/134 97/163/146 98/169/151
f 110/149/134 98/169/151 109/147/132
f 109/147/132 98/169/151 99/170/152
f 109/147/132 99/170/152 107/141/126
f 107/141/126 99/170/152 100/171/153
f 107/141/126 100/171/153 108/143/128
f 108/143/128 100/171/153 101/145/130
f 117/172/154 102/173/131 116/174/155
f 116/174/155 102/173/131 101/175/130
f 116/176/155 101/177/130 125/178/156
f 125/178/156 101/177/130 100/179/153
f 125/178/156 100/179/153 124/180/157
f 124/180/157 100/179/153 99/181/152
f 124/180/157 99/181/152 123/182/158
f 123/182/158 99/181/152 98/183/151
f 123/182/158 98/183/151 122/184/159
f 122/184/159 98/183/151 97/185/146
f 122/184/159 97/185/146 121/186/160
f 121/186/160 97/185/146 96/187/147
f 121/186/160 96/187/147 120/188/161
f 120/188/161 96/187/147 105/189/148
f 120/188/161 105/189/148 119/190/162
f 119/190/162 105/189/148 104/191/149
f 119/190/162 104/191/149 118/192/163
f 118/192/163 104/191/149 103/193/150
f 118/192/163 103/193/150 117/172/154
f 117/172/154 103/193/150 102/173/131
f 9/194/164 134/195/165 1/196/166
f 1/196/166 134/195/165 126/197/167
f 1/198/166 126/199/167 2/200/168
f 2/200/168 126/199/167 127/201/169
f 2/200/168 127/201/169 3/202/170
f 3/202/170 127/201/169 128/203/171
f 3/202/170 128/203/171 4/204/172
f 4/204/172 128/203/171 129/205/173
f 4/204/172 129/205/173 5/206/174
f 5/206/174 129/205/173 130/207/175
f 5/206/174 130/207/175 6/208/176
f 6/208/176 130/207/175 131/209/177
f 6/208/176 131/209/177 7/210/178
f 7/210/178 131/209/177 132/211/179
f 7/210/178 132/211/179 8/212/180
f 8/212/180 132/211/179 133/213/181
f 8/212/180 133/213/181 9/194/164
f 9/194/164 133/213/181 134/195/165
f 144/214/182 135/215/183 145/216/184
f 145/216/184 135/215/183 136/217/185
f 145/216/184 136/217/185 153/218/186
f 153/218/186 136/217/185 137/219/187
f 153/218/186 137/219/187 152/220/188
f 152/220/188 137/219/187 138/221/189
f 152/220/188 138/221/189 151/222/190
f 151/222/190 138/221/189 139/223/191
f 151/222/190 139/223/191 150/224/192
f 150/224/192 139/223/191 140/225/193
f 150/224/192 140/225/193 149/226/194
f 149/226/194 140/225/193 141/227/195
f 149/226/194 141/227/195 148/228/196
f 148/228/196 141/227/195 142/229/197
f 148/228/196 142/229/197 147/230/198
f 147/230/198 142/229/197 143/231/199
f 147/230/198 143/231/199 146/232/200
f 146/232/200 143/231/199 144/214/182
f 146/232/200 144/214/182 145/216/184
f 144/233/201 44/234/202 135/235/203
f 135/235/203 44/234/202 43/236/204
f 135/237/203 43/238/204 136/239/205
f 136/239/205 43/238/204 52/240/206
f 136/239/205 52/240/206 137/241/207
f 137/241/207 52/240/206 51/242/208
f 137/241/207 51/242/208 138/243/209
f 138/243/209 51/242/208 50/244/210
f 138/243/209 50/244/210 139/245/211
f 139/245/211 50/244/210 49/246/212
f 139/245/211 49/246/212 140/247/213
f 140/247/213 49/246/212 48/248/214
f 140/247/213 48/248/214 141/249/215
f 141/249/215 48/248/214 47/250/216
f 141/249/215 47/250/216 142/251/217
f 142/251/217 47/250/216 46/252/218
f 142/251/217 46/252/218 143/253/219
f 143/253/219 46/252/218 45/254/220
f 143/253/219 45/254/220 144/233/201
f 144/233/201 45/254/220 44/234/202
f 163/255/221 154/256/222 164/257/223
f 164/257/223 154/256/222 155/258/224
f 164/257/223 155/258/224 172/259/225
f 172/259/225 155/258/224 156/260/226
f 172/259/225 156/260/226 171/261/227
f 171/261/227 156/260/226 157/262/228
f 171/261/227 157/262/228 170/263/229
f 170/263/229 157/262/228 158/264/230
f 170/263/229 158/264/230 169/265/231
f 169/265/231 158/264/230 159/266/232
f 169/265/231 159/266/232 168/267/233
f 168/267/233 159/266/232 160/268/234
f 168/267/233 160/268/234 167/269/235
f 167/269/235 160/268/234 161/270/236
f 167/269/235 161/270/236 166/271/237
f 166/271/237 161/270/236 162/272/238
f 166/271/237 162/272/238 165/273/239
f 165/273/239 162/272/238 163/255/221
f 165/273/239 163/255/221 164/257/223
f 163/274/240 182/275/241 154/276/242
f 154/276/242 182/275/241 173/277/243
f 154/278/242 173/279/243 155/280/244
f 155/280/244 173/279/243 174/281/245
f 155/280/244 174/281/245 156/282/246
f 156/282/246 174/281/245 175/283/247
f 156/282/246 175/283/247 157/284/248
f 157/284/248 175/283/247 176/285/249
f 157/284/248 176/285/249 158/286/250
f 158/286/250 176/285/249 177/287/251
f 158/286/250 177/287/251 159/288/252
f 159/288/252 177/287/251 178/289/253
f 159/288/252 178/289/253 160/290/254
f 160/290/254 178/289/253 179/291/255
f 160/290/254 179/291/255 161/292/256
f 161/292/256 179/291/255 180/293/257
f 161/292/256 180/293/257 162/294/258
f 162/294/258 180/293/257 181/295/259
f 162/294/258 181/295/259 163/274/240
f 163/274/240 181/295/259 182/275/241
f 134/296/260 174/297/261 126/298/262
f 126/298/262 174/297/261 173/299/263
f 126/298/262 173/299/263 182/300/264
f 174/297/261 134/296/260 175/301/265
f 175/301/265 134/296/260 133/302/266
f 175/301/265 133/302/266 176/303/267
f 176/303/267 133/302/266 132/304/268
f 176/303/267 132/304/268 177/305/269
f 177/305/269 132/304/268 131/306/270
f 177/305/269 131/306/270 178/307/271
f 178/307/271 131/306/270 130/308/272
f 178/307/271 130/308/272 179/309/273
f 179/309/273 130/308/272 129/310/274
f 179/309/273 129/310/274 180/311/275
f 180/311/275 129/310/274 128/312/276
f 180/311/275 128/312/276 181/313/277
f 181/313/277 128/312/276 127/314/278
f 181/313/277 127/314/278 182/300/264
f 182/300/264 127/314/278 126/298/262
f 153/315/279 165/316/280 145/317/281
f 145/317/281 165/316/280 164/318/282
f 145/319/281 164/320/282 146/321/283
f 146/321/283 164/320/282 172/322/284
f 146/321/283 172/322/284 147/323/285
f 147/323/285 172/322/284 171/324/286
f 147/323/285 171/324/286 148/325/287
f 148/325/287 171/324/286 170/326/288
f 148/325/287 170/326/288 149/327/289
f 149/327/289 170/326/288 169/328/290
f 149/327/289 169/328/290 150/329/291
f 150/329/291 169/328/290 168/330/292
f 150/329/291 168/330/292 151/331/293
f 151/331/293 168/330/292 167/332/294
f 151/331/293 167/332/294 152/333/295
f 152/333/295 167/332/294 166/334/296
f 152/333/295 166/334/296 153/315/279
f 153/315/279 166/334/296 165/316/280
f 184/335/297 185/336/298 183/337/299
f 183/337/299 185/336/298 187/338/300
f 187/338/300 185/336/298 186/339/301
f 183/340/302 188/341/303 184/342/304
f 184/342/304 188/341/303 189/343/305
f 191/344/306 195/345/307 190/346/308
f 190/346/308 195/345/307 196/347/309
f 190/346/308 196/347/309 193/348/310
f 193/348/310 196/347/309 197/349/311
f 193/348/310 197/349/311 186/350/312
f 195/345/307 191/344/306 194/351/313
f 194/351/313 191/344/306 192/352/314
f 194/351/313 192/352/314 185/353/315
f 185/353/315 192/352/314 186/350/312
f 186/350/312 192/352/314 193/348/310
f 198/354/316 199/355/317 194/356/318
f 194/356/318 199/355/317 200/357/319
f 194/356/318 200/357/319 195/358/320
f 200/359/321 206/360/322 195/361/323
f 195/361/323 206/360/322 208/362/324
f 195/361/323 208/362/324 205/363/325
f 205/363/325 208/362/324 201/364/326
f 205/363/325 201/364/326 202/365/327
f 206/360/322 200/359/321 209/366/328
f 209/366/328 200/359/321 199/367/329
f 209/366/328 199/367/329 201/364/326
f 203/368/330 204/369/331 202/365/327
f 202/365/327 204/369/331 210/370/332
f 202/365/327 210/370/332 207/371/333
f 207/371/333 210/370/332 196/372/334
f 207/371/333 196/372/334 195/361/323
f 204/369/331 196/372/334 210/370/332
f 207/371/333 195/361/323 205/363/325
f 209/366/328 201/364/326 206/360/322
f 206/360/322 201/364/326 208/362/324
f 205/363/325 202/365/327 207/371/333
f 212/373/335 36/374/336 211/375/337
f 211/375/337 36/374/336 35/376/338
f 213/377/339 37/378/340 212/379/341
f 212/379/341 37/378/340 36/380/342
f 32/381/343 31/382/344 213/383/345
f 213/383/345 31/382/344 37/384/346
f 214/385/347 215/386/348 40/387/349
f 40/387/349 215/386/348 41/388/350
f 216/389/351 217/390/352 38/391/353
f 38/391/353 217/390/352 39/392/354
f 217/393/355 214/394/356 39/395/357
f 39/395/357 214/394/356 40/396/358
f 211/397/359 35/398/360 218/399/361
f 218/399/361 35/398/360 34/400/362
f 218/399/361 34/400/362 33/401/363
f 33/401/363 42/402/364 218/399/361
f 218/399/361 42/402/364 41/403/365
f 218/399/361 41/403/365 215/404/366
f 14/405/367 216/406/368 18/407/369
f 18/407/369 216/406/368 38/408/370
f 220/409/371 215/410/372 216/411/373
f 216/411/373 215/410/372 214/412/374
f 216/411/373 214/412/374 217/413/375
f 220/409/371 216/411/373 219/414/376
f 219/414/376 216/411/373 14/415/377
f 219/414/376 14/415/377 13/416/378
f 221/417/379 222/418/380 239/419/381
f 239/419/381 222/418/380 238/420/382
f 238/420/382 222/418/380 223/421/383
f 238/420/382 223/421/383 237/422/384
f 237/422/384 223/421/383 224/423/385
f 237/422/384 224/423/385 236/424/386
f 236/424/386 224/423/385 225/425/387
f 236/424/386 225/425/387 235/426/388
f 235/426/388 225/425/387 226/427/389
f 235/426/388 226/427/389 234/428/390
f 234/428/390 226/427/389 233/429/391
f 233/429/391 226/427/389 232/430/392
f 232/430/392 226/427/389 231/431/393
f 231/431/393 226/427/389 230/432/394
f 230/432/394 226/427/389 229/433/395
f 229/433/395 226/427/389 228/434/396
f 228/434/396 226/427/389 227/435/397
f 199/436/398 198/437/399 201/438/400
f 201/438/400 198/437/399 240/439/401
f 220/440/402 201/441/403 241/442/404
f 241/442/404 201/441/403 240/443/405
f 218/444/406 215/445/407 242/446/408
f 242/446/408 215/445/407 241/447/409
f 241/447/409 215/445/407 220/448/410
f 243/449/411 211/450/412 244/451/413
f 244/451/413 211/450/412 242/452/414
f 242/452/414 211/450/412 218/453/415
f 188/454/416 243/455/417 189/456/418
f 189/456/418 243/455/417 244/457/419
f 185/458/420 184/459/421 194/460/422
f 194/460/422 184/459/421 189/461/423
f 194/460/422 189/461/423 198/462/424
f 198/462/424 189/461/423 240/463/425
f 240/463/425 189/461/423 242/464/426
f 240/463/425 242/464/426 241/465/427
f 189/461/423 244/466/428 242/464/426
f 239/467/429 263/468/430 221/469/431
f 221/469/431 263/468/430 245/470/432
f 221/471/431 245/472/432 222/473/433
f 222/473/433 245/472/432 246/474/434
f 222/473/433 246/474/434 247/475/435
f 239/467/429 238/476/436 263/468/430
f 263/468/430 238/476/436 262/477/437
f 262/477/437 238/476/436 237/478/438
f 262/477/437 237/478/438 261/479/439
f 261/479/439 237/478/438 236/480/440
f 261/479/439 236/480/440 260/481/441
f 260/481/441 236/480/440 235/482/442
f 260/481/441 235/482/442 259/483/443
f 259/483/443 235/482/442 234/484/444
f 259/483/443 234/484/444 258/485/445
f 258/485/445 234/484/444 233/486/446
f 258/485/445 233/486/446 257/487/447
f 257/487/447 233/486/446 232/488/448
f 257/487/447 232/488/448 256/489/449
f 256/489/449 232/488/448 231/490/450
f 256/489/449 231/490/450 255/491/451
f 255/491/451 231/490/450 230/492/452
f 255/491/451 230/492/452 254/493/453
f 254/493/453 230/492/452 229/494/454
f 254/493/453 229/494/454 253/495/455
f 253/495/455 229/494/454 228/496/456
f 253/495/455 228/496/456 252/497/457
f 252/497/457 228/496/456 227/498/458
f 252/497/457 227/498/458 251/499/459
f 251/499/459 227/498/458 226/500/460
f 251/499/459 226/500/460 250/501/461
f 250/501/461 226/500/460 225/502/462
f 250/501/461 225/502/462 249/503/463
f 249/503/463 225/502/462 224/504/464
f 249/503/463 224/504/464 248/505/465
f 248/505/465 224/504/464 223/506/466
f 248/505/465 223/506/466 247/475/435
f 247/475/435 223/506/466 222/473/433
f 273/507/467 264/508/468 278/509/469
f 278/509/469 264/508/468 265/510/470
f 278/509/469 265/510/470 277/511/471
f 277/511/471 265/510/470 266/512/472
f 277/511/471 266/512/472 276/513/473
f 276/513/473 266/512/472 275/514/474
f 275/514/474 266/512/472 267/515/475
f 275/514/474 267/515/475 274/516/476
f 274/516/476 267/515/475 268/517/477
f 274/516/476 268/517/477 269/518/478
f 274/516/476 269/518/478 283/519/479
f 283/519/479 269/518/478 270/520/480
f 283/519/479 270/520/480 282/521/481
f 282/521/481 270/520/480 271/522/482
f 282/521/481 271/522/482 281/523/483
f 281/523/483 271/522/482 280/524/484
f 280/524/484 271/522/482 272/525/485
f 280/524/484 272/525/485 279/526/486
f 279/526/486 272/525/485 273/507/467
f 279/526/486 273/507/467 278/509/469
f 269/527/487 273/528/488 270/529/489
f 270/529/489 273/528/488 272/530/490
f 270/529/489 272/530/490 271/531/491
f 283/532/492 282/533/493 285/534/494
f 285/534/494 282/533/493 281/535/495
f 285/534/494 281/535/495 284/536/496
f 284/536/496 281/535/495 280/537/497
f 284/536/496 280/537/497 279/538/498
f 279/539/499 278/540/500 284/541/501
f 284/541/501 278/540/500 286/542/502
f 278/543/503 277/544/504 286/545/505
f 286/545/505 277/544/504 276/546/506
f 286/545/505 276/546/506 287/547/507
f 287/547/507 276/546/506 275/548/508
f 287/547/507 275/548/508 274/549/509
f 274/550/510 283/551/511 287/552/512
f 287/552/512 283/551/511 285/553/513
f 125/554/514 285/555/515 116/556/516
f 116/556/516 285/555/515 284/557/517
f 116/556/516 284/557/517 117/558/518
f 117/558/518 284/557/517 118/559/519
f 118/559/519 284/557/517 286/560/520
f 118/559/519 286/560/520 119/561/521
f 119/561/521 286/560/520 120/562/522
f 120/562/522 286/560/520 121/563/523
f 121/563/523 286/560/520 287/564/524
f 121/563/523 287/564/524 122/565/525
f 122/565/525 287/564/524 123/566/526
f 123/566/526 287/564/524 124/567/527
f 124/567/527 287/564/524 285/555/515
f 124/567/527 285/555/515 125/554/514
f 191/568/528 190/569/529 264/570/530
f 264/570/530 190/569/529 268/571/531
f 264/570/530 268/571/531 265/572/532
f 265/572/532 268/571/531 267/573/533
f 265/572/532 267/573/533 266/574/534
f 192/575/535 191/576/536 273/577/537
f 273/577/537 191/576/536 264/578/538
f 193/579/539 192/580/540 269/581/487
f 269/581/487 192/580/540 273/582/488
f 268/583/541 190/584/542 269/585/543
f 269/585/543 190/584/542 193/586/544
f 288/587/545 289/588/546 203/589/547
f 203/589/547 289/588/546 204/590/548
f 204/590/548 289/588/546 197/591/549
f 204/590/548 197/591/549 196/592/550
f 188/593/551 183/594/552 294/595/553
f 294/595/553 183/594/552 187/596/554
f 294/595/553 187/596/554 291/597/555
f 291/597/555 187/596/554 186/598/556
f 291/597/555 186/598/556 295/599/557
f 295/599/557 186/598/556 293/600/558
f 295/599/557 293/600/558 188/593/551
f 188/593/551 293/600/558 288/601/559
f 188/593/551 288/601/559 290/602/560
f 293/600/558 186/598/556 292/603/561
f 292/603/561 186/598/556 197/604/562
f 292/603/561 197/604/562 296/605/563
f 296/605/563 197/604/562 289/606/564
f 296/605/563 289/606/564 288/601/559
f 295/599/557 188/593/551 291/597/555
f 291/597/555 188/593/551 294/595/553
f 296/605/563 288/601/559 292/603/561
f 292/603/561 288/601/559 293/600/558
f 11/607/565 246/608/566 16/609/567
f 16/609/567 246/608/566 245/610/568
f 16/609/567 245/610/568 263/611/569
f 297/612/570 248/613/571 11/607/565
f 11/607/565 248/613/571 247/614/572
f 11/607/565 247/614/572 246/608/566
f 290/615/573 250/616/574 297/612/570
f 297/612/570 250/616/574 249/617/575
f 297/612/570 249/617/575 248/613/571
f 288/618/576 253/619/577 290/615/573
f 290/615/573 253/619/577 252/620/578
f 290/615/573 252/620/578 251/621/579
f 253/619/577 288/618/576 254/622/580
f 254/622/580 288/618/576 203/623/581
f 254/622/580 203/623/581 255/624/582
f 255/624/582 203/623/581 256/625/583
f 256/625/583 203/623/581 202/626/584
f 256/625/583 202/626/584 257/627/585
f 257/627/585 202/626/584 258/628/586
f 258/628/586 202/626/584 259/629/587
f 259/629/587 202/626/584 219/630/588
f 259/629/587 219/630/588 260/631/589
f 260/631/589 219/630/588 261/632/590
f 261/632/590 219/630/588 13/633/591
f 261/632/590 13/633/591 262/634/592
f 262/634/592 13/633/591 263/611/569
f 263/611/569 13/633/591 16/609/567
f 251/621/579 250/616/574 290/615/573
f 188/635/593 290/636/594 243/637/595
f 243/637/595 290/636/594 297/638/596
f 213/639/597 212/640/598 32/641/599
f 32/641/599 212/640/598 211/642/600
f 32/641/599 211/642/600 243/643/601
f 243/643/601 297/644/602 32/641/599
f 32/641/599 297/644/602 10/645/603
f 10/645/603 297/644/602 11/646/604
f 201/647/605 220/648/606 202/649/607
f 202/649/607 220/648/606 219/650/608
# 297 vertices
# 650 texture params
# 608 normals
# 590 facets

# 1 groups
